<?xml version="1.0" encoding="UTF-8"?>
<!DOCTYPE svg PUBLIC "-//W3C//DTD SVG 1.1//EN" "http://www.w3.org/Graphics/SVG/1.1/DTD/svg11.dtd">
<!-- Creator: CorelDRAW X8 -->
<svg xmlns="http://www.w3.org/2000/svg" xml:space="preserve" width="297mm" height="210mm" version="1.1" style="shape-rendering:geometricPrecision; text-rendering:geometricPrecision; image-rendering:optimizeQuality; fill-rule:evenodd; clip-rule:evenodd"
viewBox="0 0 29700 21000"
 xmlns:xlink="http://www.w3.org/1999/xlink">
 <defs>
  <style type="text/css">
   <![CDATA[
    .str0 {stroke:#2B2A29;stroke-width:20}
    .fil1 {fill:#D9DADA}
    .fil2 {fill:#74212F}
    .fil3 {fill:#2B2A29}
    .fil4 {fill:#74212F}
   ]]>
  </style>
 </defs>
 <g id="Ebene_x0020_1">
  <metadata id="CorelCorpID_0Corel-Layer"/>
  <g id="_2676513304240">
   <rect class="fil1" x="16547" y="8666" width="1212" height="7898"/>
   <rect class="fil1" x="17922" y="7905" width="1212" height="9133"/>
   <rect class="fil1" x="19344" y="7506" width="1212" height="9930"/>
   <rect class="fil1" x="20712" y="7366" width="1212" height="10329"/>
   <rect class="fil1" x="22111" y="8381" width="1034" height="8814"/>
   <rect class="fil1" x="23367" y="9070" width="1034" height="8125"/>
   <rect class="fil1" x="24528" y="8526" width="1034" height="8125"/>
   <path class="fil2" d="M18640 16201c-17,23 -32,17 0,0zm6 411c-1,48 1,-38 0,0zm81 180c26,14 -42,-22 0,0zm62 139c-13,18 -18,13 0,0zm152 -1779c-21,19 -36,18 0,0zm69 -360c-14,29 -23,15 0,0zm48 2566c-10,15 -21,11 0,0zm194 -2373c-11,20 -21,12 0,0zm467 331c-31,34 -50,25 0,0zm59 55c-22,56 -31,31 0,0zm97 2863c-33,-12 -76,40 0,0zm637 -586c-11,12 -31,11 0,0zm91 0c-12,14 -38,13 0,0zm947 -7499c33,70 80,461 80,533 -1,261 -70,216 -276,286 -306,105 -610,304 -669,597 -100,499 86,625 286,872 256,317 462,410 845,497 12,157 3,249 8,440 7,267 21,237 -196,277 -2064,378 -1394,-2260 -829,-2762 151,-133 591,-644 751,-740zm239 2782c-19,14 -13,23 0,0zm-208 -2659c-42,-18 13,6 0,0zm-1056 -24c-2,13 -37,7 0,0zm194 -178c-29,0 35,0 0,0zm354 -283c1,32 -49,31 0,0zm604 1581c43,63 104,824 108,915 18,364 -166,344 -473,153 -487,-303 -86,-932 365,-1068zm-545 543c-42,22 -6,29 0,0zm-8 339c-25,-5 -1,0 0,0zm154 148c-22,18 0,0 0,0zm160 -891c57,23 -34,-14 0,0zm-126 73c-27,20 -22,31 0,0zm134 4536c0,0 -46,23 0,0zm89 -249c-1,37 -35,24 0,0zm31 -199c0,46 -34,37 0,0zm115 -10150c-1,0 -24,19 0,0zm35 8787c0,48 -35,35 0,0zm-1 -37c0,0 -40,25 0,0zm220 -5527c-26,-335 -9,-609 -10,-877 0,-12 48,-137 58,-221 14,-109 6,-228 5,-326 -2,-101 44,-263 43,-267 -65,-192 57,-331 53,-570 -8,-505 -72,-658 -40,-1127 11,-155 110,-442 166,-625 46,-152 109,-406 253,-510 176,-126 613,110 677,238 62,126 219,541 236,725 37,398 247,908 100,1483 -52,207 -571,1396 -730,1609 -45,60 -305,378 -436,494 -16,28 -4,11 -20,32 -2,2 -5,6 -7,8 -3,2 -5,5 -8,8l-189 155c-83,70 -104,119 -175,154 -17,-26 -10,-5 -14,-48 -13,-164 25,-233 27,-278l11 -57zm-19 266l1 9 -1 -9zm165 2501c19,-15 -25,-264 99,-269 114,-4 433,105 484,133 137,76 400,526 382,662 -49,378 201,382 95,763 -59,214 -55,353 -419,505 -432,180 -438,237 -446,82 -2,-40 -17,-140 -26,-162 -120,-312 445,-186 294,-521 -55,-121 -784,-939 -463,-1193zm11 141c14,24 11,10 0,0zm489 1065c-22,11 -1,0 0,0zm-338 383c31,27 -25,-22 0,0zm0 82c35,24 -25,-18 0,0zm824 -866c-29,16 -14,32 0,0zm-363 -914c-23,16 -13,32 0,0zm-596 41c-45,35 2,39 0,0zm105 2953c-16,28 -26,17 0,0zm-4 -3516c-15,22 -26,16 0,0zm1038 393c45,-3 -29,2 0,0zm150 119c23,6 -44,-11 0,0zm194 260c-13,25 -21,15 0,0zm362 1752c-13,23 -24,14 0,0zm75 -855c-30,34 -49,24 0,0zm-4208 2937c-64,-152 -130,-196 -247,-319 -111,-116 -272,-128 -447,-282 -178,-156 -811,-264 -941,-162 -1256,981 -276,2692 911,3303 2172,1118 3089,-1487 3085,-3470 0,-121 54,-126 36,-199 -7,-30 -18,-87 119,-95 746,-43 1530,-338 1695,-1079 10,-44 39,-666 -46,-735 0,0 -161,-325 -189,-410 -102,-314 -516,-908 -957,-1008 -149,-33 -99,-52 -225,-77 -67,-13 -100,-64 -101,-64 -8,-5 -71,14 -108,12 -159,-34 -358,16 -396,-70 -82,-182 -88,-557 -126,-815 -28,-192 228,-373 404,-590 753,-928 2072,-2231 1615,-3944 -74,-219 -216,-650 -388,-926 -325,-519 -1435,-1243 -1708,-14 -178,801 -155,1187 -154,2012 1,775 203,2859 -571,3225 -1605,758 -1886,3462 -44,4367 196,97 342,74 472,108 251,64 202,-25 199,317 -1,204 -88,994 -130,1075 -42,79 -6,124 -65,243 -97,195 154,292 -75,675 -309,409 -366,838 -694,1062l-931 86c-129,-7 -257,67 -404,-52 -351,-287 -487,-381 -625,-756 -82,-221 -126,-184 -138,-457 -8,-151 -47,-346 -46,-446 3,-293 62,-564 287,-794 273,-280 857,332 933,279z"/>
   <path class="fil3" d="M6917 10299c0,6 -2,12 -5,16 -4,5 -10,9 -18,11 -8,3 -19,6 -33,8 -13,2 -30,2 -51,2 -20,0 -37,0 -51,-2 -14,-2 -25,-5 -33,-8 -8,-2 -14,-6 -18,-11 -3,-4 -5,-10 -5,-16l0 -1328 -2 0 -566 1334c-2,5 -6,10 -10,14 -4,4 -11,7 -20,10 -9,3 -19,5 -31,6 -12,1 -26,1 -43,1 -17,0 -32,0 -44,-2 -13,-2 -23,-4 -31,-6 -9,-3 -15,-6 -20,-10 -4,-4 -7,-9 -9,-13l-541 -1334 -2 0 0 1328c0,6 -1,12 -5,16 -3,5 -9,9 -17,11 -9,3 -20,6 -34,8 -13,2 -31,2 -52,2 -21,0 -38,0 -51,-2 -14,-2 -25,-5 -33,-8 -8,-2 -13,-6 -16,-11 -3,-4 -5,-10 -5,-16l0 -1402c0,-33 9,-57 27,-71 19,-14 40,-21 62,-21l132 0c26,0 50,2 70,7 20,4 38,12 53,22 15,11 28,23 38,39 10,16 19,34 26,56l460 1104 6 0 477 -1101c9,-23 20,-44 31,-60 11,-17 22,-30 36,-39 12,-10 27,-17 43,-22 16,-4 35,-6 55,-6l138 0c12,0 25,1 36,5 11,4 21,9 29,17 8,7 14,16 19,28 5,11 8,25 8,42l0 1402z"/>
   <path id="1" class="fil3" d="M8277 10300c0,6 -2,11 -5,16 -3,4 -8,8 -15,11 -8,3 -17,5 -30,7 -11,2 -26,2 -44,2 -18,0 -34,0 -46,-2 -12,-2 -21,-4 -29,-7 -6,-3 -11,-7 -14,-11 -2,-5 -3,-10 -3,-16l0 -140c-64,66 -127,115 -189,145 -62,31 -125,46 -189,46 -74,0 -137,-12 -188,-35 -51,-24 -92,-56 -124,-97 -31,-40 -53,-87 -67,-141 -14,-54 -21,-119 -21,-196l0 -643c0,-6 2,-11 5,-16 3,-4 8,-8 17,-11 8,-4 19,-6 32,-8 13,-1 29,-1 49,-1 20,0 37,0 50,1 13,2 24,4 32,8 7,3 13,7 16,11 3,5 5,10 5,16l0 618c0,62 5,112 15,149 9,37 23,69 43,95 19,27 44,47 74,62 30,14 64,21 104,21 51,0 103,-17 153,-51 52,-35 105,-86 163,-152l0 -742c0,-6 1,-11 4,-16 3,-4 8,-8 17,-11 8,-4 18,-6 31,-8 13,-1 30,-1 51,-1 20,0 36,0 49,1 13,2 24,4 31,8 8,3 13,7 17,11 4,5 6,10 6,16l0 1061z"/>
   <path id="2" class="fil3" d="M9357 10010c0,55 -10,103 -31,146 -21,42 -51,78 -90,106 -39,29 -85,52 -139,66 -54,15 -113,23 -178,23 -39,0 -77,-3 -113,-9 -36,-6 -68,-13 -97,-22 -28,-9 -53,-18 -72,-28 -20,-9 -35,-18 -44,-26 -9,-8 -16,-19 -20,-33 -4,-14 -6,-33 -6,-58 0,-15 1,-27 3,-37 1,-11 3,-19 6,-25 2,-7 6,-11 10,-14 5,-3 10,-4 16,-4 9,0 22,5 40,16 18,11 40,22 66,35 26,12 56,24 92,34 36,11 76,17 122,17 35,0 67,-4 94,-11 29,-7 53,-18 74,-32 21,-13 36,-31 48,-52 11,-22 16,-47 16,-76 0,-30 -8,-55 -24,-75 -16,-21 -37,-39 -64,-55 -26,-15 -56,-30 -89,-42 -33,-12 -67,-24 -102,-38 -35,-13 -69,-28 -102,-45 -34,-17 -64,-38 -90,-62 -27,-25 -48,-54 -64,-87 -16,-34 -24,-74 -24,-122 0,-41 9,-81 25,-119 17,-38 43,-72 77,-100 34,-29 76,-52 127,-69 51,-18 110,-26 179,-26 29,0 59,2 89,7 30,5 56,11 80,19 25,7 45,15 62,23 17,9 30,16 38,23 9,7 15,12 18,17 3,5 5,10 6,16 1,5 3,13 4,21 1,9 2,19 2,32 0,13 -1,25 -2,34 -1,10 -4,18 -6,24 -3,7 -7,11 -11,14 -4,3 -9,4 -14,4 -7,0 -18,-5 -32,-13 -14,-9 -32,-18 -55,-28 -22,-10 -49,-19 -79,-28 -30,-9 -64,-13 -103,-13 -35,0 -66,3 -92,11 -27,7 -49,18 -66,31 -17,14 -30,30 -38,49 -9,19 -13,39 -13,61 0,30 8,56 25,77 16,21 37,39 64,55 26,15 57,29 91,42 34,13 68,26 103,39 35,14 70,28 104,45 35,16 65,36 91,60 27,24 48,52 64,85 16,33 24,72 24,117z"/>
   <path id="3" class="fil3" d="M9856 10300c0,6 -2,11 -5,16 -3,4 -9,8 -16,11 -8,3 -18,5 -32,7 -13,2 -30,2 -50,2 -21,0 -37,0 -50,-2 -14,-2 -24,-4 -32,-7 -8,-3 -14,-7 -17,-11 -3,-5 -4,-10 -4,-16l0 -1061c0,-5 1,-10 4,-15 3,-5 9,-9 17,-12 8,-3 18,-5 32,-7 13,-1 29,-2 50,-2 20,0 37,1 50,2 14,2 24,4 32,7 7,3 13,7 16,12 3,5 5,10 5,15l0 1061zm23 -1418c0,46 -9,77 -28,93 -18,17 -51,25 -100,25 -49,0 -82,-8 -100,-24 -17,-16 -26,-47 -26,-92 0,-45 9,-76 27,-93 18,-16 52,-25 101,-25 48,0 81,8 99,24 18,16 27,47 27,92z"/>
   <path id="4" class="fil3" d="M11151 10299c0,6 -2,12 -5,16 -4,5 -9,9 -17,12 -8,3 -19,5 -33,7 -14,2 -32,2 -53,2 -22,0 -41,0 -55,-1 -15,-1 -27,-3 -37,-6 -10,-3 -18,-7 -24,-12 -6,-5 -12,-11 -17,-18l-471 -587 0 588c0,6 -1,11 -5,16 -3,4 -8,8 -16,11 -8,3 -18,5 -31,7 -13,2 -30,2 -51,2 -20,0 -37,0 -50,-2 -14,-2 -24,-4 -32,-7 -8,-3 -13,-7 -16,-11 -3,-5 -5,-10 -5,-16l0 -1573c0,-7 2,-12 5,-17 3,-4 8,-8 16,-12 8,-3 18,-5 32,-7 13,-1 30,-2 50,-2 21,0 38,1 51,2 13,2 23,4 31,7 8,4 13,8 16,12 4,5 5,10 5,17l0 958 421 -441c7,-8 14,-14 21,-19 8,-5 17,-10 27,-13 10,-4 22,-6 36,-8 14,-1 31,-1 51,-1 21,0 38,0 52,1 14,2 25,4 34,6 8,3 15,7 19,11 3,4 5,10 5,17 0,9 -2,19 -8,28 -5,10 -14,21 -27,33l-402 385 453 559c11,14 18,24 23,33 5,8 7,16 7,23z"/>
   <path id="5" class="fil3" d="M12304 9237c0,3 0,6 -1,10 0,4 -1,7 -1,11 -1,4 -2,8 -4,13 -1,5 -2,10 -4,15l-381 1008c-3,9 -8,16 -13,21 -5,6 -13,10 -24,13 -11,3 -25,6 -41,7 -17,1 -37,1 -62,1 -25,0 -46,0 -62,-2 -17,-2 -30,-4 -40,-7 -11,-3 -19,-7 -25,-13 -5,-5 -10,-12 -14,-20l-379 -1008c-3,-9 -6,-17 -8,-24 -2,-7 -4,-13 -4,-16 0,-4 0,-7 0,-9 0,-6 1,-12 4,-17 4,-4 9,-8 17,-11 8,-3 18,-4 31,-5 13,-1 29,-1 48,-1 24,0 43,0 58,1 14,2 25,4 33,7 8,3 14,7 17,12 4,5 8,10 11,18l315 874 5 14 4 -14 311 -874c2,-8 5,-13 9,-18 4,-5 10,-9 18,-12 8,-3 19,-5 32,-7 14,-1 32,-1 55,-1 19,0 34,0 47,1 12,1 22,3 29,6 7,3 12,7 15,11 3,4 4,10 4,16z"/>
   <path id="6" class="fil3" d="M13462 9723c0,31 -8,53 -24,66 -16,13 -35,19 -55,19l-734 0c0,59 6,112 19,159 12,48 33,88 62,122 29,34 66,60 113,78 46,18 103,27 170,27 53,0 100,-4 141,-12 42,-8 78,-18 108,-28 30,-10 55,-19 74,-27 20,-8 34,-12 45,-12 5,0 11,1 15,4 4,2 8,6 10,12 3,5 5,13 6,23 2,10 2,21 2,35 0,10 0,19 -1,27 -1,7 -2,14 -3,20 -2,6 -4,11 -7,16 -3,4 -6,8 -11,13 -4,4 -18,11 -40,21 -22,10 -51,19 -87,29 -35,9 -76,17 -123,25 -47,7 -96,11 -149,11 -92,0 -172,-12 -241,-37 -69,-24 -127,-60 -174,-108 -47,-48 -83,-108 -106,-180 -25,-72 -36,-156 -36,-252 0,-91 12,-173 37,-246 24,-72 60,-134 107,-185 47,-51 103,-89 169,-116 66,-27 141,-41 222,-41 88,0 163,13 224,40 62,27 112,63 152,108 39,45 69,98 87,159 19,61 28,126 28,195l0 35zm-206 -57c3,-102 -21,-183 -71,-241 -51,-58 -125,-87 -223,-87 -51,0 -96,9 -134,27 -38,18 -70,42 -96,72 -25,30 -45,65 -59,104 -14,40 -22,81 -24,125l607 0z"/>
   <path id="7" class="fil3" d="M14429 9308c0,17 0,32 -1,44 -1,11 -3,20 -5,27 -2,7 -6,12 -9,16 -4,3 -9,5 -16,5 -6,0 -14,-2 -24,-5 -10,-4 -20,-8 -32,-11 -12,-4 -25,-7 -40,-10 -15,-3 -31,-5 -49,-5 -20,0 -41,4 -60,12 -20,8 -41,21 -63,39 -22,18 -45,42 -69,72 -24,30 -50,67 -79,110l0 698c0,6 -2,11 -5,16 -3,4 -9,8 -16,11 -8,3 -18,5 -32,7 -13,2 -30,2 -50,2 -21,0 -37,0 -50,-2 -14,-2 -24,-4 -32,-7 -8,-3 -14,-7 -17,-11 -3,-5 -4,-10 -4,-16l0 -1061c0,-6 1,-11 4,-16 2,-4 7,-8 15,-11 7,-4 17,-6 29,-8 11,-1 27,-1 46,-1 18,0 33,0 45,1 12,2 22,4 28,8 7,3 12,7 15,11 2,5 4,10 4,16l0 155c31,-43 59,-77 86,-104 27,-27 53,-48 76,-63 24,-16 48,-26 71,-32 24,-6 48,-9 72,-9 11,0 23,0 36,2 14,1 28,3 43,6 15,3 29,7 40,11 12,4 21,7 26,11 5,4 8,8 10,12 1,3 3,8 4,13 2,6 2,14 3,24 0,11 0,25 0,43z"/>
   <path id="8" class="fil3" d="M15579 9723c0,31 -8,53 -24,66 -16,13 -35,19 -55,19l-734 0c0,59 6,112 19,159 12,48 33,88 62,122 29,34 66,60 113,78 46,18 103,27 170,27 53,0 100,-4 141,-12 42,-8 78,-18 108,-28 30,-10 55,-19 74,-27 20,-8 34,-12 45,-12 5,0 11,1 15,4 4,2 8,6 10,12 3,5 5,13 6,23 2,10 2,21 2,35 0,10 0,19 -1,27 -1,7 -2,14 -3,20 -2,6 -4,11 -7,16 -3,4 -6,8 -11,13 -4,4 -18,11 -40,21 -22,10 -51,19 -87,29 -35,9 -76,17 -123,25 -47,7 -96,11 -149,11 -92,0 -172,-12 -241,-37 -69,-24 -127,-60 -174,-108 -47,-48 -83,-108 -106,-180 -25,-72 -36,-156 -36,-252 0,-91 12,-173 37,-246 24,-72 60,-134 107,-185 47,-51 103,-89 169,-116 66,-27 141,-41 222,-41 88,0 163,13 224,40 62,27 112,63 152,108 39,45 69,98 87,159 19,61 28,126 28,195l0 35zm-206 -57c3,-102 -21,-183 -71,-241 -51,-58 -125,-87 -223,-87 -51,0 -96,9 -134,27 -38,18 -70,42 -96,72 -25,30 -45,65 -59,104 -14,40 -22,81 -24,125l607 0z"/>
   <path id="9" class="fil3" d="M16099 10300c0,6 -2,11 -5,16 -3,4 -9,8 -16,11 -8,3 -18,5 -32,7 -13,2 -30,2 -50,2 -21,0 -37,0 -50,-2 -14,-2 -24,-4 -32,-7 -8,-3 -14,-7 -17,-11 -3,-5 -4,-10 -4,-16l0 -1061c0,-5 1,-10 4,-15 3,-5 9,-9 17,-12 8,-3 18,-5 32,-7 13,-1 29,-2 50,-2 20,0 37,1 50,2 14,2 24,4 32,7 7,3 13,7 16,12 3,5 5,10 5,15l0 1061zm23 -1418c0,46 -9,77 -28,93 -18,17 -51,25 -100,25 -49,0 -82,-8 -100,-24 -17,-16 -26,-47 -26,-92 0,-45 9,-76 27,-93 18,-16 52,-25 101,-25 48,0 81,8 99,24 18,16 27,47 27,92z"/>
   <path id="10" class="fil3" d="M17437 10300c0,6 -2,11 -5,16 -3,4 -9,8 -16,11 -8,3 -18,5 -31,7 -14,2 -30,2 -50,2 -21,0 -38,0 -51,-2 -14,-2 -24,-4 -32,-7 -7,-3 -12,-7 -16,-11 -3,-5 -5,-10 -5,-16l0 -621c0,-61 -5,-110 -15,-146 -9,-37 -24,-69 -43,-96 -19,-26 -43,-47 -73,-61 -30,-14 -65,-21 -104,-21 -52,0 -102,17 -153,52 -51,34 -105,85 -161,152l0 741c0,6 -1,11 -5,16 -3,4 -8,8 -16,11 -8,3 -18,5 -31,7 -13,2 -30,2 -51,2 -20,0 -37,0 -50,-2 -14,-2 -24,-4 -32,-7 -8,-3 -13,-7 -16,-11 -3,-5 -5,-10 -5,-16l0 -1061c0,-6 2,-11 4,-16 3,-4 7,-8 15,-11 8,-4 17,-6 29,-8 11,-1 27,-1 46,-1 18,0 33,0 45,1 13,2 22,4 29,8 6,3 11,7 14,11 3,5 4,10 4,16l0 141c63,-67 125,-116 188,-147 62,-31 125,-47 188,-47 75,0 137,12 188,36 51,24 92,56 123,96 32,40 54,87 68,141 13,54 20,118 20,194l0 647z"/>
   <path class="fil4" d="M11483 11567c0,117 -15,223 -44,318 -29,94 -73,174 -131,241 -58,66 -131,117 -219,153 -87,35 -190,53 -307,53 -115,0 -214,-16 -298,-49 -85,-32 -154,-80 -209,-142 -55,-62 -96,-139 -123,-232 -27,-92 -40,-198 -40,-317 0,-115 14,-220 43,-313 30,-94 74,-173 132,-239 59,-65 132,-116 220,-152 87,-35 189,-53 307,-53 112,0 211,16 294,48 84,33 154,79 210,141 55,62 97,138 124,230 27,91 41,195 41,313zm-216 13c0,-82 -8,-159 -23,-230 -15,-70 -41,-132 -77,-184 -36,-52 -84,-92 -143,-121 -61,-30 -135,-44 -223,-44 -89,0 -163,15 -222,47 -60,31 -109,73 -146,125 -38,53 -65,114 -81,184 -16,70 -24,144 -24,221 0,85 7,164 22,235 15,73 40,134 76,187 35,51 83,92 142,121 60,28 135,43 225,43 89,0 164,-16 224,-47 61,-32 110,-74 147,-128 37,-53 64,-115 80,-186 15,-70 23,-144 23,-223z"/>
   <path id="1" class="fil4" d="M12408 11336c0,17 0,31 -1,42 -1,11 -3,20 -5,26 -2,7 -5,11 -9,15 -3,3 -8,5 -14,5 -7,0 -15,-2 -24,-5 -9,-4 -19,-7 -30,-10 -12,-4 -25,-7 -39,-10 -14,-3 -29,-4 -46,-4 -20,0 -39,3 -58,11 -19,7 -39,20 -59,37 -22,18 -43,41 -66,69 -23,29 -49,64 -76,105l0 666c0,6 -2,11 -5,16 -3,3 -8,7 -15,10 -8,3 -17,5 -30,7 -13,1 -29,2 -49,2 -19,0 -35,-1 -47,-2 -13,-2 -24,-4 -31,-7 -8,-3 -13,-7 -16,-10 -2,-5 -4,-10 -4,-16l0 -1012c0,-7 2,-12 4,-16 2,-4 7,-7 14,-11 7,-3 16,-6 28,-7 11,-1 26,-1 44,-1 17,0 32,0 43,1 12,1 21,4 27,7 6,4 11,7 14,11 2,4 4,9 4,16l0 147c29,-41 57,-74 82,-99 26,-26 50,-46 73,-61 23,-14 46,-24 68,-30 22,-6 45,-8 68,-8 10,0 22,0 35,1 13,1 27,4 41,6 14,3 27,7 38,11 12,3 20,7 24,11 5,4 9,7 10,10 1,4 3,8 4,13 1,6 2,13 3,23 0,11 0,24 0,41z"/>
   <path id="2" class="fil4" d="M13488 11318c0,26 -4,45 -11,57 -8,12 -17,17 -29,17l-154 0c28,27 48,57 59,89 10,32 16,66 16,101 0,58 -10,110 -29,155 -20,45 -49,83 -85,114 -37,32 -81,55 -131,72 -51,16 -107,24 -169,24 -43,0 -85,-5 -123,-16 -40,-11 -70,-24 -91,-41 -14,14 -25,29 -34,46 -8,18 -13,38 -13,60 0,27 13,49 39,66 25,17 60,27 102,28l278 11c53,2 101,9 145,21 44,13 83,30 115,53 33,23 58,51 76,84 18,34 27,72 27,116 0,47 -10,91 -31,133 -20,42 -52,79 -94,110 -42,32 -96,58 -162,76 -65,18 -143,27 -232,27 -86,0 -159,-7 -220,-20 -60,-14 -110,-33 -149,-57 -38,-24 -66,-53 -84,-86 -17,-34 -26,-70 -26,-109 0,-25 4,-49 10,-72 6,-23 16,-45 29,-66 13,-21 29,-42 48,-60 20,-20 42,-38 68,-57 -39,-19 -67,-43 -86,-71 -18,-29 -27,-59 -27,-92 0,-46 9,-87 29,-123 19,-36 43,-68 72,-97 -24,-28 -44,-59 -58,-94 -14,-34 -21,-77 -21,-126 0,-58 10,-110 30,-155 21,-46 49,-85 86,-116 36,-32 80,-56 131,-73 51,-17 106,-25 166,-25 33,0 63,2 91,5 28,4 55,9 79,16l323 0c13,0 23,6 30,18 7,13 10,31 10,57zm-306 265c0,-68 -20,-122 -60,-160 -40,-39 -96,-58 -169,-58 -39,0 -72,6 -100,18 -27,12 -51,28 -70,49 -18,21 -32,45 -41,72 -9,28 -14,56 -14,86 0,67 20,119 60,157 40,38 96,58 168,58 39,0 72,-6 101,-18 28,-12 52,-27 70,-48 19,-21 33,-45 42,-71 9,-27 13,-55 13,-85zm97 802c0,-44 -18,-77 -56,-101 -37,-23 -88,-36 -152,-38l-275 -8c-26,18 -47,36 -63,53 -16,17 -28,33 -38,48 -9,15 -16,31 -20,46 -3,15 -5,30 -5,45 0,49 26,86 78,111 52,25 125,37 218,37 59,0 109,-5 148,-16 40,-11 72,-25 97,-43 24,-18 42,-38 53,-61 10,-24 15,-48 15,-73z"/>
   <path id="3" class="fil4" d="M14627 11733c0,29 -8,50 -23,62 -15,13 -33,19 -53,19l-701 0c0,56 7,107 18,152 12,45 32,84 60,116 27,32 63,57 107,74 45,18 99,26 163,26 50,0 96,-4 135,-12 40,-7 74,-16 103,-26 28,-9 52,-18 71,-26 19,-8 32,-12 42,-12 6,0 11,1 15,4 4,3 8,7 10,12 2,5 4,12 5,22 2,9 2,20 2,34 0,9 0,18 -1,25 -1,7 -2,13 -3,19 -1,6 -3,11 -6,15 -3,4 -6,9 -11,13 -4,4 -17,11 -38,20 -22,9 -49,18 -83,27 -34,9 -73,17 -118,24 -44,8 -92,11 -142,11 -88,0 -164,-11 -230,-35 -66,-23 -122,-57 -166,-103 -45,-46 -79,-103 -102,-173 -23,-68 -34,-148 -34,-240 0,-87 11,-165 35,-235 24,-69 58,-128 103,-176 44,-49 98,-86 161,-112 63,-25 134,-38 212,-38 84,0 155,12 214,38 59,25 107,60 145,103 38,43 66,93 83,152 18,58 27,120 27,186l0 34zm-196 -55c2,-98 -21,-174 -69,-230 -48,-56 -119,-83 -213,-83 -49,0 -91,8 -127,25 -37,18 -67,41 -92,69 -25,29 -44,62 -57,100 -13,38 -21,77 -23,119l581 0z"/>
   <path id="4" class="fil4" d="M15123 12283c0,6 -1,11 -4,16 -4,3 -9,7 -16,10 -7,3 -17,5 -30,7 -12,1 -28,2 -48,2 -20,0 -35,-1 -48,-2 -13,-2 -23,-4 -30,-7 -8,-3 -13,-7 -16,-10 -3,-5 -4,-10 -4,-16l0 -1502c0,-6 1,-11 4,-16 3,-4 8,-8 16,-11 7,-3 17,-5 30,-7 13,-1 28,-2 48,-2 20,0 36,1 48,2 13,2 23,4 30,7 7,3 12,7 16,11 3,5 4,10 4,16l0 1502z"/>
   <path id="5" class="fil4" d="M16069 10854c0,14 -1,26 -3,35 -1,8 -3,15 -5,20 -2,5 -4,9 -8,11 -3,2 -7,3 -11,3 -6,0 -13,-2 -21,-5 -9,-4 -19,-7 -31,-12 -12,-4 -26,-7 -42,-11 -16,-3 -35,-5 -56,-5 -30,0 -55,5 -75,14 -21,9 -38,23 -50,42 -13,19 -22,44 -27,75 -6,30 -9,67 -9,111l0 111 238 0c6,0 12,1 16,3 4,3 8,8 12,14 3,6 6,14 8,24 2,10 3,22 3,36 0,27 -4,47 -10,59 -8,12 -17,18 -29,18l-238 0 0 886c0,6 -1,11 -5,16 -3,3 -8,7 -15,10 -8,3 -18,5 -31,7 -12,1 -28,2 -47,2 -19,0 -35,-1 -47,-2 -13,-2 -23,-4 -31,-7 -7,-3 -12,-7 -15,-10 -4,-5 -5,-10 -5,-16l0 -886 -152 0c-12,0 -22,-6 -28,-18 -6,-12 -10,-32 -10,-59 0,-14 1,-26 3,-36 2,-10 4,-18 7,-24 3,-6 7,-11 12,-14 5,-2 10,-3 16,-3l152 0 0 -105c0,-71 7,-132 20,-183 15,-50 36,-92 64,-124 29,-33 64,-57 107,-72 43,-15 94,-23 153,-23 27,0 55,2 80,7 27,5 47,10 61,16 14,6 24,11 28,15 5,4 9,11 12,18 3,7 6,15 7,26 1,10 2,22 2,36z"/>
   <path id="6" class="fil4" d="M17072 11733c0,29 -8,50 -23,62 -16,13 -33,19 -53,19l-701 0c0,56 6,107 18,152 12,45 32,84 59,116 28,32 64,57 108,74 45,18 99,26 163,26 50,0 96,-4 135,-12 39,-7 74,-16 102,-26 29,-9 53,-18 72,-26 18,-8 32,-12 42,-12 5,0 10,1 15,4 4,3 7,7 9,12 3,5 5,12 6,22 1,9 2,20 2,34 0,9 -1,18 -2,25 0,7 -1,13 -2,19 -2,6 -4,11 -6,15 -3,4 -6,9 -11,13 -4,4 -17,11 -38,20 -22,9 -49,18 -83,27 -34,9 -73,17 -118,24 -44,8 -92,11 -142,11 -88,0 -165,-11 -231,-35 -65,-23 -121,-57 -166,-103 -45,-46 -79,-103 -101,-173 -23,-68 -35,-148 -35,-240 0,-87 12,-165 36,-235 23,-69 58,-128 102,-176 45,-49 99,-86 162,-112 63,-25 134,-38 212,-38 84,0 155,12 214,38 59,25 107,60 145,103 37,43 65,93 83,152 18,58 27,120 27,186l0 34zm-197 -55c3,-98 -20,-174 -68,-230 -48,-56 -119,-83 -213,-83 -49,0 -91,8 -128,25 -36,18 -66,41 -91,69 -25,29 -44,62 -57,100 -13,38 -21,77 -23,119l580 0z"/>
   <path id="7" class="fil4" d="M17568 12283c0,6 -1,11 -5,16 -3,3 -8,7 -15,10 -7,3 -17,5 -30,7 -13,1 -29,2 -49,2 -19,0 -35,-1 -47,-2 -13,-2 -23,-4 -31,-7 -7,-3 -13,-7 -15,-10 -3,-5 -4,-10 -4,-16l0 -1502c0,-6 1,-11 4,-16 2,-4 8,-8 15,-11 8,-3 18,-5 31,-7 12,-1 28,-2 47,-2 20,0 36,1 49,2 13,2 23,4 30,7 7,3 12,7 15,11 4,5 5,10 5,16l0 1502z"/>
   <path id="8" class="fil4" d="M18598 12007c0,52 -10,98 -30,138 -20,41 -49,75 -86,103 -37,27 -81,48 -132,63 -52,14 -108,21 -170,21 -38,0 -74,-3 -108,-8 -35,-6 -65,-13 -93,-22 -27,-8 -50,-17 -69,-26 -19,-9 -33,-18 -41,-25 -9,-7 -16,-18 -19,-31 -4,-14 -6,-32 -6,-56 0,-14 0,-26 2,-35 2,-10 4,-18 6,-24 2,-6 6,-11 10,-13 4,-3 9,-4 15,-4 8,0 21,5 38,15 17,10 38,21 63,33 25,12 54,23 88,33 34,11 73,16 117,16 33,0 63,-4 90,-11 27,-6 50,-16 70,-30 20,-13 35,-30 45,-50 11,-20 16,-44 16,-73 0,-28 -7,-52 -23,-71 -15,-20 -35,-37 -61,-52 -25,-15 -53,-29 -85,-40 -31,-12 -64,-24 -97,-37 -34,-13 -66,-27 -98,-43 -32,-16 -60,-36 -86,-59 -25,-23 -45,-51 -61,-83 -15,-33 -23,-71 -23,-116 0,-40 8,-78 25,-114 16,-37 40,-69 72,-96 33,-27 74,-49 122,-66 49,-16 105,-24 170,-24 29,0 57,2 86,6 28,5 54,11 77,18 23,7 42,15 58,23 16,8 29,15 37,22 9,6 14,11 17,15 2,5 5,10 6,16 1,5 2,12 3,20 2,9 2,19 2,30 0,13 0,24 -2,33 -1,10 -3,17 -6,23 -3,6 -6,10 -10,13 -4,3 -8,4 -13,4 -7,0 -17,-4 -31,-13 -13,-8 -31,-17 -52,-26 -22,-10 -47,-19 -75,-27 -29,-8 -62,-12 -99,-12 -34,0 -63,3 -88,10 -26,7 -46,17 -62,30 -17,13 -29,29 -37,47 -9,17 -13,37 -13,58 0,29 8,54 24,73 16,20 36,38 62,53 25,15 54,28 86,40 32,12 65,25 99,37 33,13 67,27 99,43 33,16 62,35 87,57 26,23 46,50 61,81 16,32 23,70 23,113z"/>
   <path class="fil3" d="M8574 14238c0,7 -1,12 -3,17 -2,5 -6,9 -13,12 -7,3 -17,5 -29,7 -12,2 -29,2 -49,2 -18,0 -32,0 -44,-2 -11,-2 -20,-4 -27,-8 -6,-3 -12,-8 -15,-15 -4,-6 -7,-14 -10,-23l-122 -362c-14,-41 -29,-79 -45,-113 -15,-35 -33,-64 -55,-89 -20,-25 -46,-44 -74,-58 -29,-14 -64,-21 -104,-21l-118 0 0 653c0,7 -1,12 -4,17 -3,5 -8,8 -14,11 -7,3 -16,5 -27,7 -11,3 -25,3 -43,3 -17,0 -31,0 -42,-3 -11,-2 -21,-4 -27,-7 -7,-3 -12,-6 -14,-11 -3,-5 -5,-10 -5,-17l0 -1419c0,-31 7,-52 21,-65 14,-12 29,-18 45,-18l282 0c33,0 61,1 83,3 22,2 42,4 60,7 51,10 96,26 136,48 39,22 72,50 99,84 26,34 46,73 60,117 13,44 20,92 20,145 0,51 -6,97 -18,138 -13,40 -30,76 -52,107 -23,32 -50,59 -81,82 -32,22 -66,42 -106,57 22,12 42,26 60,42 18,17 34,38 49,62 16,23 30,51 44,82 14,30 27,65 41,104l119 338c9,28 16,48 18,60 3,11 4,20 4,26zm-265 -1077c0,-60 -12,-111 -35,-153 -23,-41 -62,-71 -117,-89 -17,-6 -36,-9 -57,-12 -22,-2 -50,-3 -85,-3l-149 0 0 516 172 0c47,0 87,-6 121,-19 34,-14 62,-32 84,-55 23,-23 39,-51 50,-82 11,-32 16,-66 16,-103z"/>
   <path id="1" class="fil3" d="M9557 13660c0,31 -6,52 -20,66 -13,13 -28,19 -45,19l-606 0c0,60 6,113 16,160 10,48 27,89 51,123 24,34 55,60 93,78 38,18 85,27 140,27 44,0 83,-4 117,-12 34,-8 64,-18 89,-28 25,-10 45,-19 61,-27 17,-9 28,-13 37,-13 5,0 9,1 13,4 3,3 6,7 8,13 2,5 4,13 5,22 1,10 1,22 1,36 0,10 0,19 -1,27 0,7 -1,14 -2,20 -1,6 -3,11 -5,16 -3,4 -6,9 -9,13 -4,5 -15,12 -34,21 -18,10 -42,20 -71,29 -30,10 -63,18 -102,26 -38,7 -79,11 -123,11 -76,0 -142,-12 -199,-37 -57,-24 -105,-61 -143,-109 -39,-48 -69,-108 -88,-181 -20,-73 -30,-157 -30,-254 0,-91 10,-173 31,-247 20,-72 50,-135 88,-186 39,-50 86,-89 140,-117 55,-27 116,-41 183,-41 73,0 134,14 185,41 51,27 92,63 125,108 33,45 57,99 72,160 16,61 23,127 23,196l0 36zm-170 -58c3,-103 -17,-183 -59,-242 -41,-59 -102,-88 -184,-88 -42,0 -78,9 -110,27 -31,18 -58,43 -79,73 -21,30 -38,65 -49,105 -12,40 -18,81 -20,125l501 0z"/>
   <path id="2" class="fil3" d="M9986 14240c0,6 -1,11 -4,16 -3,4 -7,8 -13,11 -7,3 -15,5 -26,7 -11,2 -25,2 -42,2 -17,0 -31,0 -41,-2 -12,-2 -20,-4 -27,-7 -6,-3 -11,-7 -13,-11 -3,-5 -4,-10 -4,-16l0 -1067c0,-5 1,-11 4,-15 2,-5 7,-9 13,-12 7,-3 15,-6 27,-7 10,-2 24,-3 41,-3 17,0 31,1 42,3 11,1 19,4 26,7 6,3 10,7 13,12 3,4 4,10 4,15l0 1067zm19 -1426c0,46 -8,77 -23,94 -15,16 -42,25 -83,25 -40,0 -67,-8 -82,-25 -14,-16 -22,-46 -22,-92 0,-46 8,-77 23,-94 15,-16 43,-25 83,-25 40,0 67,8 82,25 15,16 22,47 22,92z"/>
   <path id="3" class="fil3" d="M10960 14075c0,14 0,25 -1,35 -1,10 -2,18 -3,25 -2,7 -4,13 -7,18 -2,5 -7,13 -16,23 -9,10 -23,22 -43,37 -21,14 -44,28 -70,39 -26,12 -53,21 -83,28 -30,7 -61,11 -94,11 -66,0 -125,-13 -176,-38 -51,-25 -94,-62 -128,-110 -35,-49 -61,-109 -79,-179 -18,-71 -28,-152 -28,-245 0,-104 12,-195 34,-270 22,-75 52,-137 91,-185 39,-48 84,-84 136,-107 53,-23 109,-35 170,-35 29,0 58,3 85,10 28,6 53,14 77,24 23,11 44,22 62,36 18,14 31,25 39,35 9,9 14,17 17,22 3,6 6,12 8,20 2,7 3,16 4,25 1,10 1,22 1,36 0,31 -3,52 -9,65 -6,12 -14,18 -23,18 -10,0 -22,-7 -35,-20 -13,-13 -30,-27 -51,-43 -20,-16 -45,-30 -74,-43 -29,-14 -64,-20 -103,-20 -81,0 -144,36 -187,108 -44,72 -65,177 -65,314 0,68 5,128 16,180 12,51 28,95 50,129 22,35 49,61 81,78 32,17 68,25 109,25 39,0 73,-7 103,-21 29,-14 54,-30 76,-48 21,-17 40,-32 54,-46 15,-14 26,-21 35,-21 4,0 8,2 12,5 3,3 6,9 8,16 3,8 5,17 6,29 1,11 1,25 1,40z"/>
   <path id="4" class="fil3" d="M11977 14240c0,6 -2,11 -4,16 -3,4 -7,8 -14,11 -6,3 -14,5 -26,7 -10,2 -24,2 -40,2 -18,0 -32,0 -43,-2 -11,-2 -19,-4 -26,-7 -6,-3 -10,-7 -13,-11 -3,-5 -4,-10 -4,-16l0 -625c0,-61 -4,-110 -12,-147 -8,-37 -20,-69 -36,-96 -16,-27 -36,-47 -60,-61 -25,-15 -54,-22 -86,-22 -43,0 -85,18 -127,52 -42,35 -86,86 -132,153l0 746c0,6 -1,11 -4,16 -3,4 -7,8 -13,11 -7,3 -15,5 -26,7 -11,2 -25,2 -42,2 -17,0 -31,0 -42,-2 -11,-2 -19,-4 -26,-7 -6,-3 -11,-7 -13,-11 -3,-5 -4,-10 -4,-16l0 -1582c0,-7 1,-12 4,-17 2,-5 7,-9 13,-12 7,-3 15,-5 26,-7 11,-1 25,-2 42,-2 17,0 31,1 42,2 11,2 19,4 26,7 6,3 10,7 13,12 3,5 4,10 4,17l0 637c48,-60 97,-104 146,-132 49,-29 98,-44 148,-44 61,0 113,13 155,36 42,25 76,57 101,97 26,40 45,88 56,142 11,54 17,120 17,196l0 650z"/>
   <path id="5" class="fil3" d="M13070 13660c0,31 -7,52 -20,66 -13,13 -29,19 -46,19l-605 0c0,60 5,113 15,160 10,48 28,89 52,123 23,34 55,60 93,78 38,18 85,27 140,27 44,0 83,-4 117,-12 34,-8 64,-18 89,-28 24,-10 45,-19 61,-27 16,-9 28,-13 37,-13 4,0 9,1 12,4 4,3 7,7 9,13 2,5 4,13 5,22 1,10 1,22 1,36 0,10 0,19 -1,27 -1,7 -1,14 -2,20 -1,6 -3,11 -6,16 -2,4 -5,9 -9,13 -4,5 -15,12 -33,21 -18,10 -42,20 -72,29 -29,10 -63,18 -101,26 -39,7 -80,11 -123,11 -76,0 -142,-12 -199,-37 -57,-24 -105,-61 -144,-109 -39,-48 -68,-108 -87,-181 -20,-73 -30,-157 -30,-254 0,-91 10,-173 31,-247 20,-72 50,-135 88,-186 38,-50 85,-89 140,-117 54,-27 115,-41 183,-41 72,0 134,14 184,41 51,27 93,63 126,108 32,45 57,99 72,160 15,61 23,127 23,196l0 36zm-170 -58c2,-103 -17,-183 -59,-242 -42,-59 -103,-88 -184,-88 -42,0 -79,9 -110,27 -32,18 -58,43 -79,73 -22,30 -38,65 -49,105 -12,40 -19,81 -20,125l501 0z"/>
   <path id="6" class="fil3" d="M14122 14240c0,6 -2,11 -5,16 -2,4 -7,8 -13,11 -6,3 -15,5 -26,7 -11,2 -24,2 -41,2 -17,0 -31,0 -42,-2 -11,-2 -20,-4 -26,-7 -6,-3 -10,-7 -13,-11 -3,-5 -4,-10 -4,-16l0 -625c0,-61 -4,-110 -12,-147 -9,-37 -20,-69 -36,-96 -16,-27 -36,-47 -61,-61 -24,-15 -53,-22 -86,-22 -42,0 -84,18 -126,52 -42,35 -86,86 -132,153l0 746c0,6 -2,11 -4,16 -3,4 -7,8 -14,11 -6,3 -14,5 -26,7 -10,2 -24,2 -41,2 -17,0 -31,0 -42,-2 -11,-2 -20,-4 -26,-7 -7,-3 -11,-7 -14,-11 -2,-5 -3,-10 -3,-16l0 -1067c0,-6 1,-12 3,-16 2,-4 6,-8 12,-12 7,-3 14,-6 24,-7 10,-1 22,-2 38,-2 15,0 28,1 38,2 10,1 17,4 23,7 5,4 9,8 12,12 2,4 3,10 3,16l0 141c52,-67 103,-117 155,-148 52,-31 103,-47 156,-47 61,0 113,13 155,36 41,25 75,57 101,97 26,40 45,88 56,142 11,54 17,119 17,195l0 651z"/>
   <path id="7" class="fil3" d="M14889 14160c0,23 -1,42 -4,55 -2,13 -6,23 -12,29 -5,7 -14,13 -24,18 -11,6 -24,10 -38,14 -14,4 -29,6 -44,9 -16,2 -31,3 -47,3 -48,0 -89,-7 -123,-21 -34,-15 -62,-37 -84,-67 -21,-29 -37,-67 -47,-112 -10,-45 -15,-99 -15,-160l0 -622 -130 0c-10,0 -18,-6 -24,-19 -6,-12 -9,-33 -9,-62 0,-15 0,-27 2,-37 2,-11 4,-19 7,-26 2,-7 6,-11 11,-14 4,-3 9,-4 15,-4l128 0 0 -253c0,-6 1,-11 4,-16 2,-5 7,-9 13,-12 7,-4 15,-6 26,-8 11,-2 25,-2 42,-2 17,0 31,0 42,2 11,2 19,4 26,8 6,3 10,7 13,12 3,5 4,10 4,16l0 253 235 0c5,0 10,1 14,4 4,3 8,7 11,14 3,7 5,15 6,26 2,10 2,22 2,37 0,29 -3,50 -9,62 -6,13 -14,19 -24,19l-235 0 0 593c0,73 9,129 28,166 18,37 52,56 100,56 16,0 30,-2 42,-5 12,-4 23,-7 32,-11 10,-5 18,-8 25,-12 6,-3 13,-5 18,-5 3,0 7,1 10,3 3,2 5,5 7,11 2,6 3,13 4,23 2,9 2,21 2,35z"/>
   <path id="8" class="fil3" d="M15782 14241c0,9 -2,16 -8,21 -5,5 -13,8 -22,11 -10,2 -24,3 -42,3 -18,0 -32,-1 -43,-3 -10,-3 -18,-6 -23,-11 -5,-5 -7,-12 -7,-21l0 -107c-40,50 -85,89 -135,116 -49,27 -102,41 -157,41 -48,0 -92,-7 -132,-22 -39,-15 -72,-36 -100,-63 -28,-28 -49,-62 -65,-102 -15,-41 -23,-86 -23,-138 0,-60 11,-112 32,-156 21,-45 52,-81 91,-111 40,-29 88,-51 146,-65 57,-15 122,-22 193,-22l128 0 0 -84c0,-40 -4,-77 -12,-109 -7,-31 -19,-57 -36,-78 -17,-21 -38,-37 -65,-48 -27,-11 -59,-16 -98,-16 -42,0 -79,6 -112,17 -33,12 -62,25 -87,39 -25,14 -46,27 -63,38 -16,12 -29,18 -37,18 -5,0 -10,-2 -14,-5 -4,-3 -8,-8 -11,-14 -3,-6 -5,-15 -6,-24 -2,-10 -3,-21 -3,-33 0,-19 2,-35 4,-46 2,-12 8,-23 17,-33 10,-10 26,-22 48,-36 22,-14 49,-27 78,-39 29,-11 61,-21 96,-28 35,-8 70,-12 105,-12 66,0 123,9 169,26 47,18 84,44 113,77 28,34 49,75 62,125 13,50 19,108 19,174l0 720zm-167 -489l-145 0c-46,0 -86,5 -120,14 -34,9 -63,23 -85,41 -23,17 -39,38 -50,63 -10,26 -16,54 -16,87 0,55 15,99 46,132 30,32 73,49 127,49 44,0 86,-13 123,-39 38,-26 78,-66 120,-120l0 -227z"/>
   <path id="9" class="fil3" d="M16263 14240c0,6 -2,11 -5,16 -2,4 -7,8 -13,11 -6,3 -15,5 -26,7 -11,2 -25,2 -42,2 -17,0 -30,0 -41,-2 -11,-2 -20,-4 -26,-7 -7,-3 -11,-7 -14,-11 -2,-5 -3,-10 -3,-16l0 -1582c0,-7 1,-12 3,-17 3,-5 7,-9 14,-12 6,-3 15,-5 26,-7 11,-1 24,-2 41,-2 17,0 31,1 42,2 11,2 20,4 26,7 6,3 11,7 13,12 3,5 5,10 5,17l0 1582z"/>
   <path id="10" class="fil3" d="M17832 13660c0,31 -7,52 -20,66 -13,13 -28,19 -46,19l-605 0c0,60 5,113 15,160 11,48 28,89 52,123 24,34 55,60 93,78 38,18 85,27 140,27 44,0 83,-4 117,-12 34,-8 64,-18 89,-28 25,-10 45,-19 61,-27 16,-9 28,-13 37,-13 5,0 9,1 13,4 3,3 6,7 8,13 2,5 4,13 5,22 1,10 1,22 1,36 0,10 0,19 -1,27 0,7 -1,14 -2,20 -1,6 -3,11 -5,16 -3,4 -6,9 -10,13 -3,5 -15,12 -33,21 -18,10 -42,20 -71,29 -30,10 -64,18 -102,26 -39,7 -79,11 -123,11 -76,0 -142,-12 -199,-37 -57,-24 -105,-61 -144,-109 -38,-48 -68,-108 -87,-181 -20,-73 -30,-157 -30,-254 0,-91 10,-173 31,-247 20,-72 50,-135 88,-186 39,-50 85,-89 140,-117 54,-27 116,-41 183,-41 72,0 134,14 185,41 51,27 92,63 125,108 33,45 57,99 72,160 15,61 23,127 23,196l0 36zm-170 -58c2,-103 -17,-183 -59,-242 -41,-59 -103,-88 -184,-88 -42,0 -79,9 -110,27 -32,18 -58,43 -79,73 -21,30 -38,65 -49,105 -12,40 -19,81 -20,125l501 0z"/>
   <path id="11" class="fil3" d="M18309 14139c0,56 -8,93 -24,112 -16,18 -45,28 -87,28 -42,0 -70,-10 -86,-28 -15,-18 -23,-54 -23,-109 0,-56 8,-93 24,-112 16,-18 45,-28 87,-28 42,0 70,9 86,27 15,19 23,55 23,110z"/>
   <path id="12" class="fil3" d="M18873 14233c-3,9 -6,17 -11,22 -5,6 -12,10 -20,13 -9,3 -19,5 -33,7 -13,1 -30,1 -51,1 -15,0 -28,0 -39,0 -11,0 -21,-2 -29,-3 -8,-2 -15,-4 -21,-6 -6,-2 -11,-4 -15,-7 -4,-3 -7,-7 -10,-12 -2,-4 -4,-9 -6,-15l-434 -1425c-5,-17 -8,-31 -8,-42 0,-10 2,-18 8,-24 7,-5 16,-9 30,-11 14,-1 32,-2 56,-2 18,0 34,0 45,2 11,1 20,3 26,6 6,3 11,8 14,13 3,5 6,11 9,19l379 1291 3 0 369 -1288c2,-9 5,-16 7,-22 3,-5 8,-10 15,-13 7,-3 16,-5 28,-6 13,-2 29,-2 50,-2 21,0 37,1 50,3 12,2 20,5 25,11 4,6 6,14 5,24 -1,11 -4,25 -10,42l-432 1424z"/>
   <path id="13" class="fil3" d="M19517 14139c0,56 -8,93 -24,112 -16,18 -45,28 -88,28 -41,0 -69,-10 -85,-28 -16,-18 -23,-54 -23,-109 0,-56 8,-93 24,-112 16,-18 45,-28 87,-28 42,0 70,9 86,27 15,19 23,55 23,110z"/>
   <path class="fil2" d="M16559 5076c28,61 305,734 383,790l6 -865c127,-72 113,-82 206,-81l-35 1121 -132 -84c23,66 119,279 199,370 257,290 100,159 -41,300l142 1110c-42,-14 -23,128 -2,208 69,270 -87,170 -186,156 -65,-65 -75,-1618 -193,-1849 -115,-225 -293,-562 -376,-762 -50,-121 -65,-115 -131,-261 -29,-64 -63,-113 -83,-145 -27,-45 34,-85 -21,-93 -96,1 -103,303 -107,369 -4,77 -67,250 -92,433 -38,277 -124,709 -243,933 -44,82 -101,130 -97,196 5,70 55,150 10,280 -71,206 15,289 -52,523 -23,79 -16,967 -241,604l116 -1296 -1606 396 -10 -41c-36,235 -57,596 -115,786 -17,58 -47,924 -236,597 -46,-79 116,-1175 138,-1353l-219 -9 2 -36c-82,-173 210,-313 314,-419 342,-350 506,-1297 766,-1332 229,-30 600,-309 816,-449 123,-80 766,-705 856,-652 91,204 178,364 264,555zm-499 -165c14,38 -136,808 -165,938 -72,319 -122,679 -260,864 -141,188 -1482,558 -1699,436 261,-249 685,-1332 761,-1361 1003,-378 1124,-779 1363,-877z"/>
   <path class="fil2" d="M16942 4134c5,-3 -9,-18 -4,-21l-8 -13 -157 -238c28,-85 214,-88 299,-450 50,-211 104,-376 135,-518 68,-315 147,-614 240,-969 48,-185 -19,-477 91,-492 140,-19 157,334 205,524 90,358 188,934 283,1167 58,140 58,334 181,488 128,160 97,182 116,307 19,130 -93,51 -123,169 -8,32 -1,164 -2,198 -7,295 -10,135 206,205 485,158 1259,494 2200,557 202,458 340,920 510,1271 40,81 143,180 240,265 77,69 23,79 46,227 27,177 -241,130 -227,195 -33,-5 116,1142 149,1360 52,341 -207,317 -201,94 1,-39 -120,-763 -125,-1049 -1,-99 -42,-144 -60,-290 -9,-70 20,-65 -133,-67 -242,-2 -1234,-245 -1336,-229 -34,47 99,746 95,899 -2,98 37,347 44,466 14,241 -161,240 -229,132 -33,-140 76,-265 1,-438l-139 -915c-59,-224 138,-128 -56,-381 -186,-242 -881,-1620 -903,-1629 -46,20 -200,603 -229,709 -46,168 -252,653 -307,816 -194,580 -73,1625 -238,1878l-27 57c-37,53 -51,47 -70,58 -19,-16 -24,-18 -45,-38 -20,-19 -23,-25 -40,-40 8,-194 74,-551 94,-779 0,-4 6,-22 7,-28l62 -745 -174 -1c-135,-135 144,-248 237,-411 250,-441 423,-1050 476,-1648 16,-187 -30,-508 -29,-710l-869 43 -14 576c55,-16 207,50 269,70 -56,174 -390,55 -407,41 -16,-189 -33,-587 -34,-673zm650 -1973l480 1681c-34,47 -494,73 -709,75 -439,6 -177,-133 -100,-425 40,-148 325,-1326 329,-1331zm-422 1602c-16,5 -22,9 0,0zm4049 3007c-114,12 -315,132 -515,64 -123,-42 -346,-29 -522,-78 -328,-90 -721,-29 -865,-314 -69,-139 -317,-475 -415,-697 -129,-291 -283,-573 -419,-852 0,0 -41,-94 -45,-110 -15,-54 -34,-65 27,-50l704 220c322,60 712,239 1020,247 325,8 292,6 380,255 56,161 119,313 181,486 283,783 302,554 469,829zm-35 -27c-7,11 -13,33 0,0z"/>
   <rect class="fil2 str0" x="17500" y="4400" width="208" height="214" rx="54" ry="54"/>
   <rect class="fil2 str0" transform="matrix(1.50661 -0.196009 0.281755 2.16569 16261.3 5790.05)" width="137" height="141" rx="35" ry="35"/>
   <rect class="fil2 str0" x="15021" y="7323" width="208" height="214" rx="54" ry="54"/>
   <rect class="fil2 str0" transform="matrix(1.51655 -0.0914999 0.0914999 1.51655 14367 7532.68)" width="137" height="141" rx="35" ry="35"/>
   <rect class="fil2 str0" transform="matrix(1.51655 -0.0914999 0.0914999 1.51655 14109.5 7545.13)" width="137" height="141" rx="35" ry="35"/>
   <rect class="fil2 str0" transform="matrix(1.51655 -0.0914999 0.0914999 1.51655 14127.8 7792.35)" width="137" height="141" rx="35" ry="35"/>
   <rect class="fil2 str0" transform="matrix(1.51763 -0.0712069 0.0712069 1.51763 18424.4 6279.5)" width="137" height="141" rx="35" ry="35"/>
   <rect class="fil2 str0" x="18177" y="6285" width="208" height="214" rx="54" ry="54"/>
   <rect class="fil2 str0" transform="matrix(1.51322 0.135772 -0.135772 1.51322 18190 6523.86)" width="137" height="141" rx="35" ry="35"/>
   <rect class="fil2 str0" x="18421" y="6536" width="208" height="214" rx="54" ry="54"/>
  </g>
 </g>
</svg>

