<?xml version="1.0" encoding="UTF-8"?>
<!DOCTYPE svg PUBLIC "-//W3C//DTD SVG 1.1//EN" "http://www.w3.org/Graphics/SVG/1.1/DTD/svg11.dtd">
<!-- Creator: CorelDRAW X8 -->
<svg xmlns="http://www.w3.org/2000/svg" xml:space="preserve" version="1.1" style="shape-rendering:geometricPrecision; text-rendering:geometricPrecision; image-rendering:optimizeQuality; fill-rule:evenodd; clip-rule:evenodd"
viewBox="600 4700 9500 6100"
 xmlns:xlink="http://www.w3.org/1999/xlink">
 <defs>
  <style type="text/css">
   <![CDATA[
    .fil0 {fill:white}
   ]]>
  </style>
 </defs>
 <g id="Ebene_x0020_1">
  <metadata id="CorelCorpID_0Corel-Layer"/>
  <g id="_1320948592288">
   <path class="fil0" d="M8839 8570c35,-94 42,-121 -11,-144 -29,45 3,15 -24,77 -25,55 -63,68 -110,114 -69,66 -38,179 -25,233 -68,94 -18,83 -34,193 -64,22 -47,-22 -103,40 -29,32 -34,46 -61,82 -19,4 -56,2 -68,7l-20 17c-55,56 31,-10 -16,20 -25,16 -51,-12 -92,-16l-17 -95c-1,-7 -4,-8 -6,-12 -37,13 -60,21 -46,68l33 73c43,29 93,43 150,42 35,-84 43,-58 64,-53 10,33 2,40 -13,71 -25,53 -23,28 -18,95 4,46 -10,65 -8,82 3,31 -7,16 18,32 77,48 30,-108 34,-124 4,-14 33,-89 44,-123 77,-249 160,-52 177,-162 1,-3 1,-15 1,-20 0,-242 25,-84 38,-200 13,-119 -72,-41 13,-215 32,-66 36,-62 100,-82z"/>
   <path class="fil0" d="M7949 10207c1,44 2,60 51,55 22,-3 64,-17 79,-21 105,-30 219,72 347,60 112,-10 125,-16 140,-56 -50,-44 -69,-12 -155,-1 -86,11 -201,-81 -314,-71 -11,1 -135,31 -148,34z"/>
   <path class="fil0" d="M6754 9093c67,-8 17,-17 82,-4 46,10 16,16 81,10 26,-57 4,-69 21,-102 29,21 13,7 24,43 10,32 -9,4 16,43 0,0 136,28 166,-5 -74,6 -48,10 -59,-25l-32 -2c-33,31 -37,24 -78,20l-7 -276 -42 4c-23,30 -24,31 -25,74 -1,59 8,32 10,68 3,42 4,105 0,144 -15,0 -25,1 -39,-1 -54,-6 -35,-33 -36,-64 -4,-145 -20,4 8,-198 -58,3 -22,-5 -62,25l-23 18c-3,59 3,54 12,92l2 9c0,7 -2,3 -4,17 -10,62 17,36 -15,110z"/>
   <path class="fil0" d="M6236 9842c-89,-17 -87,-52 -196,-36 0,73 15,39 87,77 60,32 55,17 120,8 36,47 63,77 125,58 -1,-76 -63,-92 -136,-107z"/>
   <path class="fil0" d="M6465 9850c11,53 8,64 70,58 133,-13 239,58 283,-76 -76,-3 -98,18 -178,17 -68,0 -106,-5 -175,1z"/>
   <path class="fil0" d="M4716 5098c-6,83 -20,25 25,61 43,35 111,31 146,20 3,-73 -28,-64 -64,-79 -53,-22 -52,-40 -107,-2z"/>
   <path class="fil0" d="M6220 8860l27 41c-19,13 -26,7 -27,32 -1,46 6,46 34,62 22,-24 41,-127 42,-165 1,-55 10,-27 -22,-60 -25,11 -24,-27 -54,90z"/>
   <path class="fil0" d="M4789 5500c32,-26 11,-13 19,-35 -13,-12 -3,-3 -23,-16 -104,-63 3,-58 -124,-76l-8 97 85 -14 16 57c34,-8 -1,17 35,-13z"/>
   <path class="fil0" d="M8098 9071c-3,-81 4,-28 -20,-70 -47,-81 -14,-105 -67,-126 -41,62 -1,39 6,157 53,25 13,20 81,39z"/>
   <path class="fil0" d="M4432 5595c133,5 26,-59 210,-12 -7,-47 2,-57 -53,-61 -29,-2 -144,33 -157,73z"/>
   <path class="fil0" d="M5536 10017c1,0 45,-11 52,-12 50,29 -1,19 79,33 -2,-60 -13,-91 -81,-74 -10,2 -37,14 -49,18 -10,4 -16,5 -28,10l-19 7c18,18 -39,22 46,18z"/>
   <path class="fil0" d="M8515 8745c-30,-46 -7,-47 -50,-77 -16,17 -13,1 -19,32l75 143c40,-42 23,-53 -6,-98z"/>
   <path class="fil0" d="M3761 10526l4 63c-59,-15 -29,1 -48,-28 -4,-7 -4,-24 -25,-47l8 119c32,12 54,-6 77,-15 1,-19 5,-38 2,-57 -8,-41 -11,-24 -18,-35z"/>
   <path class="fil0" d="M8008 8804c2,-52 -30,-85 -80,-91 -2,41 -2,37 22,72 23,35 10,35 58,19z"/>
   <path class="fil0" d="M4869 5492c17,4 47,13 65,13 74,1 38,-3 51,-33 -10,-8 -15,-34 -85,-4 -30,13 -12,-8 -31,24z"/>
   <path class="fil0" d="M6380 7152l5 26 119 -16c-23,-36 -47,-42 -108,-18l-16 8z"/>
   <path class="fil0" d="M4859 5674c52,76 57,49 85,36 0,-54 -36,-66 -85,-36z"/>
   <path class="fil0" d="M8713 6507c25,83 61,42 67,41 6,-23 20,-57 -27,-57 -43,0 -15,1 -40,16z"/>
   <path class="fil0" d="M4791 5558c-60,27 -62,7 -101,30l17 15c32,20 35,12 68,23l16 -68z"/>
   <path class="fil0" d="M3382 6244c-38,2 -22,15 -30,29 6,6 -4,19 36,21 54,4 7,2 31,-15 -5,-14 15,-38 -37,-35z"/>
   <path class="fil0" d="M4617 5692l62 1c3,-28 27,-29 -17,-40 -14,-4 -21,9 -53,-13l8 52z"/>
   <path class="fil0" d="M6606 8204c9,-47 11,-30 -5,-72 -7,3 -29,-17 -35,26 -6,46 12,31 40,46z"/>
   <path class="fil0" d="M4681 6083c93,-4 52,-31 51,-43 -8,-3 21,-36 -33,-1 -29,20 -9,10 -18,44z"/>
   <path class="fil0" d="M7999 5772c58,-10 25,12 59,-31 -1,0 9,-36 -33,-18 -33,15 -17,-25 -26,49z"/>
   <path class="fil0" d="M7757 8595c-13,37 3,29 4,32l23 3c12,-17 25,-12 6,-62 -23,7 -17,-23 -33,27z"/>
   <path class="fil0" d="M5238 6901c-10,-52 -1,-42 -58,-43 22,22 -30,38 58,43z"/>
   <path class="fil0" d="M6615 8113c-2,-61 13,-29 -43,-48 8,60 -23,42 43,48z"/>
   <path class="fil0" d="M4830 5724c-3,-13 -20,-19 -22,-20 -29,50 -15,36 7,60 26,-32 30,45 15,-40z"/>
   <path class="fil0" d="M8386 8483c-4,-46 -1,-52 -43,-27 14,15 -21,23 43,27z"/>
   <path class="fil0" d="M5825 9089c-3,-2 -7,-9 -8,-7 -2,3 -11,-9 -15,-13 -7,-7 -17,-18 -22,-24 1,-29 3,-77 7,-105 4,-28 -4,-11 10,-40 25,-51 -3,-16 32,-28l-4 217zm505 -11c45,-26 20,-18 24,-67l15 -84c3,-46 1,-134 36,-168 47,28 14,10 19,106l-3 106c-6,104 68,151 -116,123 -13,-13 -7,-4 -18,-22 -25,-42 -9,-50 -54,-52 2,18 7,52 12,78 -98,-5 -67,-48 -74,-134 -6,-93 0,-211 147,-188 -1,97 -25,176 -11,238l23 64zm-462 -481l60 -8 4 92c35,24 17,-3 27,34 -119,9 -120,18 -91,-118zm1276 481c-30,33 -166,5 -166,5 -25,-39 -6,-11 -16,-43 -11,-36 5,-22 -24,-43 -17,33 5,45 -21,102 -65,6 -35,0 -81,-10 -65,-13 -15,-4 -82,4l-64 -7 -13 -36c-17,-35 11,-15 -24,-29 -56,56 37,52 -54,80 -30,-29 -19,-21 -23,-74 -7,-129 -9,-13 9,-155 3,-21 15,-65 16,-69 -132,-105 -42,228 -75,270 -22,28 -4,14 -48,13 -19,-94 12,-95 -27,-135l35 -30c-8,-68 -2,-108 16,-149l260 -38c67,-1 218,-6 276,2 -9,130 -25,88 -8,198l23 117 32 2c12,-76 -13,-42 -5,-99 2,-18 6,-28 8,-53 12,-186 -10,-155 289,-175 89,-6 165,-15 253,-8 1,102 -41,71 -24,171 6,38 8,49 1,87 -4,26 -4,23 -6,48 -3,41 7,15 -8,43 -30,-18 -14,-5 -26,-39 -1,-3 -4,-14 -4,-17 -16,-67 13,-46 -28,-95 10,-60 4,-125 28,-163 -94,3 -79,107 -63,183l14 136c-106,0 -95,-5 -108,-127 -9,-86 19,-143 10,-188 -104,5 -66,172 -68,226 -2,42 21,67 1,87 0,0 -124,53 -153,-24 -5,-14 -4,-20 -8,-34 -16,-54 -20,-20 -9,-55 12,-39 18,-133 2,-168 -13,4 -28,-9 -43,57l-7 173c5,33 26,41 13,59zm591 -13l-71 -4c-5,-24 -10,-248 4,-295 16,-51 27,-47 83,-41 -18,67 -26,30 -30,189l-9 70c-12,62 4,28 23,81zm-1612 -526c-6,20 -26,61 -22,96 3,26 8,24 22,32 2,2 5,2 8,4l34 19c-30,24 -69,22 -121,14l-24 -98c52,-37 38,7 50,-56l-71 -28c34,-23 147,-44 187,-7 -17,31 -26,18 -63,24zm647 53c18,55 -5,76 -63,75 -9,-37 3,-79 -14,-107 -15,-24 -55,-16 -6,-65 3,3 5,6 7,8 79,104 58,34 76,89zm232 -29l-8 69c15,7 18,6 25,10 61,32 -37,-24 15,8l14 11c-57,19 -84,15 -142,0l11 -106c110,-54 86,-89 132,-37 -19,62 -10,11 -47,45zm-1177 -193c3,-3 4,-7 6,-9 1,-2 3,-6 5,-8 0,0 -5,-13 34,-27l208 -13c82,-5 188,-25 269,-6 18,52 7,146 2,198 -14,127 28,117 -9,188l-94 -5c-14,-28 -7,-1 -12,-40l-13 -216c-76,5 12,19 -224,26 -67,2 -128,23 -205,26 -2,-3 -5,-7 -6,-9 -1,-1 -5,-6 -6,-8 -1,-1 -4,-5 -5,-7 -16,-20 9,2 -15,-17 -105,51 20,310 -120,294 -12,-24 -31,-269 -6,-325 23,-54 165,-52 191,-42zm-292 380c-28,-56 -15,-211 -15,-258 1,-93 9,-199 15,-294 2,-1 6,-4 7,-2l48 -10 9 -91c21,16 7,55 25,94 28,58 38,13 36,96 -69,-16 -101,-38 -97,50 2,23 5,51 5,75 0,41 -7,29 -8,71 -1,26 0,124 4,152 4,34 11,93 -29,117zm955 -208c1,-53 4,-86 9,-142 7,-69 -16,-97 64,-93 37,2 42,9 82,8 120,-2 540,-27 621,6 13,51 7,266 -3,333 -42,13 -92,18 -149,9 2,-58 -1,-96 -1,-150 -1,-90 21,-71 -38,-114 -34,8 -2,-7 -37,25 -63,-8 -151,1 -209,8 -74,8 -151,-5 -217,2 -24,37 -3,58 2,109 4,45 -7,91 -13,140l-93 -1 -18 -140zm-1176 -375c11,-65 28,-143 85,-158 3,-1 23,2 23,2 19,68 13,60 -29,93 -61,46 9,33 -79,63zm893 76c1,-58 11,-103 15,-162 6,-83 8,-101 54,-114 19,58 -10,102 -7,139 3,28 27,41 3,135l-65 2zm-237 -276c0,62 -22,78 -25,148 -1,23 -1,63 -3,84 -3,46 -3,38 -22,61 -35,-13 -43,7 -27,-137 6,-44 11,-122 21,-158l56 2zm-361 81c-1,-3 -5,-15 -6,-18 -26,-51 -17,-16 -31,-20 -73,-21 39,36 -25,-11 12,-8 23,-31 71,-21 13,37 16,62 0,86 -2,-2 -4,-6 -5,-8 -1,-2 -3,-6 -4,-8zm57 -21c6,-62 0,-77 188,-50 6,88 -12,80 -16,153 -2,40 28,120 -8,136 -87,40 -12,-229 -29,-267 -41,12 -29,10 -40,53 -6,21 -6,22 -12,41 -29,89 2,109 13,184l-49 0c-8,-96 24,-178 21,-277 -47,8 -21,9 -68,27zm531 -66c-38,94 -16,214 -21,292l-89 -12 30 -246c-110,-7 -56,183 -82,256 -85,5 -48,-58 -40,-119 9,-67 1,-114 28,-167l174 -4zm1253 51c31,18 31,21 48,51 -11,32 -21,54 -53,63l5 -114zm-1965 -183c29,-52 1,-17 39,-33 16,23 14,-2 20,38 10,74 -53,47 -54,47 -15,100 -35,73 -66,72l61 -124zm1614 176c49,-52 17,-75 76,-71 8,17 -7,110 -7,149 0,80 7,98 19,160 -85,-11 -56,-19 -70,-101 -6,-33 -10,-41 -11,-68 -2,-38 5,-35 -7,-69zm-367 -62c151,2 224,-50 201,31 -21,72 3,30 -11,133 -15,100 25,39 16,131 -168,38 -74,-158 -62,-252 -84,-18 -71,23 -82,98 -9,56 -7,42 2,89 6,30 15,29 -8,72 -69,14 -33,0 -85,-35 -36,22 -20,19 -52,45 -41,-4 -35,-12 -75,-7 -24,4 -50,11 -81,12 -15,-55 11,-29 -29,-52l-44 377c-29,-41 -15,-93 -16,-170 -2,-168 16,-76 36,-168l-125 -11c-10,-55 10,-121 13,-167 2,-43 -14,-104 41,-125 44,50 18,136 15,167 0,0 -17,35 31,55 42,-157 -20,-185 49,-221 18,35 -5,79 -6,119 -2,110 -8,85 23,93 77,-204 -61,-220 224,-216 -46,112 -22,64 -25,133 -2,70 -27,97 48,113 -18,-124 -15,-6 -3,-121 3,-28 5,-96 5,-123zm-842 -41c-2,-54 -26,-101 6,-154l31 4c22,40 15,120 2,153l-39 -3zm1199 24c-11,46 -47,97 -36,160 14,85 28,98 23,139l-7 17c-155,37 -96,-221 -70,-315l90 -1zm-668 -50c-46,-149 61,-116 168,-118 105,-1 196,-35 162,117l-293 12c-54,-5 -24,-5 -37,-11zm498 -90c0,49 10,36 10,83l-113 -9c-16,-37 -33,-81 20,-92l11 37c3,18 -6,3 6,37 0,0 43,15 59,-48 1,-5 4,-5 7,-8zm-601 71c33,12 37,6 60,26 -53,29 -202,22 -294,27 -151,7 -68,-100 -74,-232 124,-2 48,-19 111,-16 -10,78 -99,40 -103,95 -1,6 1,12 7,15 24,12 5,1 19,-2l238 -14c16,28 27,65 36,101zm8 -168c10,-25 4,-23 35,-35 63,-27 44,3 50,8 9,39 -47,62 -85,27zm920 144l39 -60c-13,-55 -25,-17 -12,-66 85,9 13,60 107,145l9 107c1,40 -15,74 -19,117 -7,77 16,119 12,201 -3,67 -4,150 4,217 10,90 8,148 -50,157 -23,-56 -5,-309 -21,-407 -27,-16 -74,-29 -99,-46 -4,-103 -21,-163 31,-251 74,-43 110,28 122,-60 -80,-49 -197,-6 -288,-29 26,-28 56,-43 94,-56 30,19 24,26 71,31zm-1230 -221c13,-34 36,-40 80,-34 -16,32 -33,50 -80,34zm977 -21c44,38 28,67 22,123 -7,62 13,105 -10,141 -44,-33 -25,-87 -26,-144 0,-66 -30,-75 14,-120zm-1737 472c36,-107 138,-237 191,-358 27,-61 75,-103 111,-166 30,-53 58,-119 113,-138 -11,34 -21,66 -42,94l-105 172c-47,105 -103,173 -151,259 -39,71 -74,140 -117,137zm1711 -524c-38,0 -26,4 -51,-14l44 -21 -8 -61c36,-35 54,-23 63,-22 -3,100 -27,9 -48,118zm441 173c51,99 168,247 175,327 -47,-15 -47,-31 -72,-66 -20,-28 -28,-45 -43,-82 -46,-108 -261,-430 -254,-484 50,11 75,101 99,146 16,31 36,53 51,77 16,29 31,58 44,82zm-1686 -406c42,-43 76,-26 119,-49 42,-22 33,-57 99,-77 142,-45 28,-85 214,-119 -48,47 -60,43 -122,76l-211 160c-32,24 -73,69 -99,9zm546 -243c193,-134 229,-15 458,-68 31,33 62,60 76,97 17,44 27,60 73,90 59,39 53,62 86,90 43,38 74,18 88,80 -213,-3 -401,-17 -601,-2 -168,12 -434,29 -599,8 42,-79 83,-58 145,-113 58,-51 62,-78 166,-75 -3,-28 -25,-66 85,-72 49,-2 103,18 129,-18 -42,-34 -52,-5 -106,-17zm163 -85c39,-32 111,-86 163,-89 23,25 59,69 64,102l-227 -13zm-257 67c2,-3 5,-7 7,-10 93,-128 21,5 160,-127 45,-43 60,-5 101,-49 19,-20 27,-70 91,-24 -31,42 -83,56 -124,90 -75,63 -68,34 -137,68 -43,21 -44,41 -98,52zm-794 1686l26 -9c-48,-29 -27,-9 -41,-55 7,-8 4,-35 50,-38 71,-5 10,-1 35,10l13 131 -114 -2c-76,2 -194,-7 -257,26l6 46 465 -27c74,-2 166,-7 240,-10 284,-11 229,-75 246,81 6,51 -23,134 0,186 60,-24 27,-79 36,-138l27 -128c11,-30 -6,-12 22,-27 23,43 -4,12 3,117 3,41 1,-10 -7,28 -17,81 -1,121 4,180 -57,1 -120,1 -162,-23 -8,-36 -8,-98 -2,-140 8,-56 13,7 46,-124 -64,-5 -44,-17 -89,96 -20,50 19,139 -21,184 -39,-25 -19,11 -28,-49 -14,-82 6,-139 19,-194l-125 -20c-41,71 -59,170 -41,256 -115,-13 -23,-133 -55,-204l-45 10c-19,90 -8,105 -12,191l-58 -7c-5,-71 10,-140 27,-199l-64 10c-23,67 -15,110 -25,184 -61,-75 -1,-96 -23,-195l-29 -11c-85,78 -2,180 -59,214 -26,-24 -9,-61 -8,-106 0,-18 -1,-42 0,-60 4,-56 3,-1 9,-53l-57 23c-12,66 8,155 -27,201 -53,-34 -2,-34 -4,-124l-10 -112c-13,10 -7,2 -20,15 -33,32 -26,35 -27,87 -1,44 2,81 -21,126 -36,-48 -2,-50 -20,-178 -7,-53 11,1 3,-33l-33 3 -31 31c-3,1 -7,1 -10,2 -4,1 -7,1 -11,2 -3,1 -6,1 -9,2 -9,3 -23,10 -31,14 -3,28 -4,97 -4,132 -2,104 -13,12 -39,104 15,6 18,6 35,14l98 39c3,111 -7,243 -19,358 -9,93 -29,252 -11,328l34 2c40,-54 44,-295 48,-383 6,-132 -12,-241 63,-335 54,2 89,-21 134,6 2,1 7,8 8,5 2,-2 6,4 9,6 2,-2 5,-5 6,-7l21 -18c26,-17 -14,-9 35,-13l118 -1c136,-5 279,9 408,2 202,-10 414,14 616,6 156,-6 1105,-46 1187,-17 17,47 -7,231 -10,311 -2,71 14,88 9,153 -5,60 -19,106 57,92 11,-47 -1,-80 -2,-123 -1,-46 8,-104 11,-152 6,-96 -2,-186 9,-285l61 -27c8,-57 -17,-162 -26,-222 -8,-60 -11,-172 -64,-200 -63,62 -11,50 -33,104 -13,32 -28,82 -53,98 -16,-32 -4,-149 19,-182l22 -24c-65,-42 -5,-39 -114,-45 24,-33 17,-9 15,-59l-40 -15c19,-48 20,-4 14,-38 -1,-3 -14,-19 -20,-43 13,-27 35,-52 31,-91 -6,-48 -36,-26 -42,-57 0,-3 -4,-4 -5,-7 12,-25 30,-59 43,-81 67,14 70,64 139,61 29,-44 -6,-21 20,-52 42,-51 68,28 79,-116 68,-10 87,-47 79,-132 -5,-49 -53,-85 -71,-138l22 -16c20,-15 4,-1 21,-16l-5 -71c8,-7 103,-87 107,-89 35,-15 83,11 97,-38 15,-53 2,-16 -4,-34 -61,8 -7,9 -72,25 -39,9 -75,36 -112,55 -28,14 -32,10 -61,18 -7,42 1,52 -11,90 -6,21 -19,36 -21,60 -4,69 82,107 74,184 -4,35 -12,37 -37,49 -69,34 -46,16 -47,97 -90,45 -43,39 -137,5 -89,-32 -51,23 -139,-2 12,-53 27,-36 25,-67 -3,-37 -15,-14 -17,-55 -6,-105 22,-41 -31,-139l-194 -315c-39,-58 -54,-119 -91,-173 -28,-40 -19,-30 -30,-77 -18,-74 -2,-39 17,-73 -38,-8 -54,4 -82,22l-54 -61c-51,-48 -19,-11 -30,-81 -96,-30 -207,-141 -277,-215 -34,-36 -85,-85 -130,-119 -45,-34 -136,-158 -180,-66 -33,-47 -21,-38 -83,-21 -47,13 -49,21 -85,55 -87,-33 -162,-12 -253,13 0,34 0,68 2,101l8 64c-50,43 -111,39 -156,95 -39,49 -10,26 -79,49 -62,21 -42,30 -72,57 -53,47 -82,-15 -167,84 -29,34 -41,41 -64,65 -53,55 -417,671 -426,756 39,27 33,3 70,37l64 47c-29,77 -83,170 -101,239 -16,64 -38,52 -12,128l-95 173c52,-1 80,-10 135,-2 63,10 64,22 137,14z"/>
   <path class="fil0" d="M2558 9164c26,-21 76,-89 83,-122 -31,5 -24,-5 -63,41 4,-39 8,-79 11,-118 5,-63 -5,-51 -17,-83 20,-24 20,-45 6,-70l27 -4c6,-107 18,-222 6,-326 -5,-43 -10,-67 -5,-116l150 -104c77,-45 36,34 110,-52 29,-34 27,-24 51,-32 25,54 13,67 6,134 -6,59 4,104 -4,153 -104,77 -76,70 -84,205 -5,94 11,36 -3,130 -14,87 -19,113 13,131l17 -117c22,15 -4,6 28,6 2,-41 16,-90 15,-143 -3,-153 14,-164 166,-198 13,-75 16,-193 18,-271 2,-103 -31,-113 -102,-148 4,-86 -3,-217 19,-292 16,-53 43,-194 73,-233 18,5 85,56 98,70 81,82 -8,320 -3,430 4,89 38,158 57,240 29,117 41,134 7,265l-48 -57c-19,-16 -37,-27 -73,-35 -22,16 -37,30 -37,78 99,67 113,39 126,169 8,78 21,53 12,115 -5,33 -4,103 -2,138 10,177 41,349 51,521 6,97 -2,185 -9,287 -12,190 1,433 -9,578 -9,131 -37,171 24,261 91,-111 26,-73 38,-220 15,-186 10,-359 13,-541 1,-57 10,-137 0,-196 -6,-35 -11,13 -1,-42 15,-79 7,-184 -8,-261 -25,-124 -36,-374 -37,-504 -1,-19 0,-45 -2,-59 -5,-61 -18,-128 -13,-183 37,-22 37,-8 50,-54 22,-85 20,-182 -7,-257 -149,-413 26,-500 -53,-672 -25,-52 -108,-114 -147,-158 -23,-25 -32,-26 -49,-45 10,-60 38,-99 59,-148 70,-166 58,-357 107,-532 48,-20 76,-18 117,-41 16,-100 16,-147 57,-230 34,12 60,53 79,89 19,36 37,70 55,105 17,34 2,21 31,50 35,39 65,100 86,149l-56 20c-30,174 -8,269 -22,406 -8,73 -11,139 -15,211 -3,58 -38,143 -15,184 43,4 34,6 52,-35 10,-23 19,-53 24,-84 21,-153 27,-367 29,-526 18,43 -6,22 42,39 105,38 56,36 143,94 244,162 102,230 218,381 57,74 97,105 102,206 -67,-18 -123,-70 -151,-122 -61,-116 -64,-91 -30,-169 -73,-63 -101,-218 -215,-222 -35,91 -18,291 -21,399 -1,52 -10,92 -13,145 -27,-14 -16,-8 -33,-31 -23,-31 -34,-47 -82,-44 5,54 97,207 150,181 53,-27 17,-64 26,-128 18,-128 4,-283 9,-415 32,1 72,88 84,129 102,338 227,264 303,387 27,42 36,25 49,68 16,54 11,130 42,181 20,34 31,23 64,55 90,89 48,259 36,387l-90 -12c-21,-57 -20,-107 -25,-164l-20 -85c-34,-74 -40,-154 -74,-231 -33,-74 -7,-111 -91,-109 -22,42 -36,109 -45,172 -18,131 -88,201 -100,357 -10,122 -31,149 27,171 14,-16 7,12 20,-37 23,-82 6,-159 41,-254 15,-42 34,-87 47,-126 8,-20 11,-44 16,-72 44,-240 89,235 101,269 36,41 43,18 44,96 -68,31 -57,10 -118,67 -45,42 -48,60 -116,67 -118,14 -143,104 -151,223l-32 553c-1,91 -41,118 37,139 18,-48 37,-342 38,-416 1,-49 30,-372 39,-391 28,15 43,74 57,109l92 237c14,45 15,96 59,78 28,-19 21,-55 7,-90 -39,-100 -42,-129 -53,-228 -28,-243 35,-156 98,-280 55,17 23,21 61,29 91,18 146,-82 195,194 13,78 68,155 88,216 45,134 107,211 61,379 -25,91 -55,191 -68,286 -34,251 100,265 142,331 55,83 14,276 77,379 52,4 73,-6 79,-58 -37,-38 -38,-11 -57,-59 -28,-72 -12,-165 -32,-244 -27,-103 -84,-84 -123,-167 -101,-216 62,-376 59,-581 -1,-107 -49,-162 -84,-255 -15,-40 -4,-39 -28,-74 22,-55 17,4 23,-52 -1,0 -21,-13 -22,-14 -34,-17 -47,-14 -52,-57 -13,-97 30,-1 29,-77 0,-19 -38,-77 -46,-89 -21,-30 -24,-48 -42,-81 13,-34 22,-23 37,-52l-48 -25c4,-91 32,-242 -2,-316 -43,-93 -124,-113 -135,-227l36 -17c17,-9 4,3 22,-13 -21,-46 -25,-49 -68,-30 -10,-53 -41,-82 -53,-145 -28,-142 -26,-146 -122,-266 -37,-45 -34,-63 -45,-132 -27,-170 -157,-229 -260,-327 -93,-90 -59,-17 -34,-103 -40,-21 -32,-33 -47,-80 -38,-126 -45,-126 -120,-225 -37,-50 -47,-100 -75,-152 -25,-48 -75,-91 -131,-113l-48 37c-50,15 -178,-76 -264,-74 -14,23 -6,16 -11,25 -1,2 -3,5 -4,7l-43 50c103,59 165,47 248,32 30,25 55,23 40,75 -60,218 -146,45 -161,278 -9,152 -60,371 -125,502 -31,64 -89,429 -91,505 -13,411 -4,300 -218,367 -107,33 -59,102 -150,135 -58,-29 -50,-61 -45,-137 8,-122 51,-312 -2,-422l-11 -23c-1,-1 -11,-22 -12,-23 -57,-105 -103,-5 -134,-211 -13,-90 -42,-188 -105,-244 -114,-11 -143,23 -126,131 8,50 27,185 21,241 -32,8 -30,-3 -66,6 -97,25 -98,265 -98,357 -1,219 -41,464 -79,678 -16,90 8,25 -25,139 -16,54 -20,118 4,160 37,-4 18,-1 48,-23 22,-101 38,-218 53,-329 7,-50 10,-141 14,-155 18,-60 20,-82 27,-148l28 -328c4,-52 4,-121 11,-164 5,-40 9,-35 19,-64l25 -64c71,15 54,54 55,129l5 479c-6,239 -30,454 -37,682 -49,33 -112,59 -176,81 -58,20 -18,24 -87,35 -59,10 -356,142 -450,177l-367 146c-53,21 -234,74 -320,117l-15 39 1 0c69,23 119,-2 182,-26 59,-22 127,-50 182,-69l896 -354c204,-96 170,16 201,-91 7,-23 8,-26 11,-50l20 -228c31,-194 22,-388 29,-582 10,-247 -27,-429 -32,-651 -1,-50 -26,-169 -14,-208 45,-3 29,-8 51,24 65,93 29,190 59,286 12,38 29,50 68,73 140,85 108,113 85,343 -4,47 4,78 -1,129 -14,169 10,100 73,211 19,32 13,86 15,131 2,35 3,94 3,126l9 131c1,39 -8,96 -6,137 4,95 18,169 7,263z"/>
   <path class="fil0" d="M5210 6641c8,-89 -19,9 69,-53 43,-29 82,-21 124,-5 64,25 44,3 40,62 -10,5 16,34 -63,5 -45,-16 -61,-66 -112,-23 -87,74 -47,21 -58,14zm-157 -91l-33 -28c-2,-1 -5,-4 -6,-5 -1,-1 -3,-3 -5,-5 8,-21 9,-69 88,-62 49,4 143,72 151,102 -114,18 -64,-68 -154,-63l-41 61zm-294 -128c80,-4 166,38 190,65 16,19 17,42 22,59l-92 -25c-3,2 -6,2 -7,7l-22 28c-34,39 12,25 -48,21 -11,-49 51,-31 -19,-113 -20,-24 -15,-18 -24,-42zm36 -307c26,-6 129,-24 143,-7 22,44 3,56 6,102 1,27 0,18 13,43l18 37c0,0 -155,-89 -180,-175zm-63 -75c1,12 42,39 -51,43 9,-34 -11,-24 18,-44 54,-35 25,-2 33,1zm-115 -1c38,73 -61,111 84,83 50,76 56,68 52,123 -127,-50 -33,-10 -85,-75 -25,31 -41,42 -57,101l90 4c-14,75 -25,47 -21,143 -148,-39 -58,32 -216,-9 -56,-15 -13,1 -56,-38 -56,8 -108,-5 -164,4 -80,12 -75,5 -162,5 44,-43 115,-37 185,-27l52 -52c43,17 93,51 151,55 41,3 31,-7 63,-23 45,-22 44,-1 43,-55 -50,-8 -110,30 -152,-5 59,-33 120,-23 177,-44 8,-54 -1,-76 -16,-119 -23,-66 -16,-40 -92,-66 19,-16 22,-14 45,-12 22,2 62,3 79,7zm369 -76c63,43 45,51 39,78 -49,15 -51,8 -103,4 14,-39 31,-58 64,-82zm-311 37c-19,10 -16,23 -70,5 21,-47 -32,-45 38,-41 48,2 24,19 32,36zm133 -296c2,1 19,7 22,20 15,85 11,8 -15,40 -22,-24 -36,-10 -7,-60zm51 -30c49,-30 85,-18 85,36 -28,13 -33,40 -85,-36zm-427 -79c13,-40 128,-75 157,-73 55,4 46,14 53,61 -184,-47 -77,17 -210,12zm343 31c-33,-11 -36,-3 -68,-23l-17 -15c39,-23 41,-3 101,-30l-16 68zm159 -121c-18,0 -48,-9 -65,-13 19,-32 1,-11 31,-24 70,-30 75,-4 85,4 -13,30 23,34 -51,33zm-281 -35l8 -97c127,18 20,13 124,76 20,13 10,4 23,16 -8,22 13,9 -19,35 -36,30 -1,5 -35,13l-16 -57 -85 14zm234 -291c-35,11 -103,15 -146,-20 -45,-36 -31,22 -25,-61 55,-38 54,-20 107,2 36,15 67,6 64,79zm-278 461c32,22 39,9 53,13 44,11 20,12 17,40l-62 -1c-28,72 -17,47 -85,69 -14,84 -11,139 71,154l37 -77c37,-52 12,-50 46,-82 10,9 15,8 15,24 1,49 -3,-10 -14,33 -5,19 0,70 -1,102 30,-3 50,-13 83,10 -5,28 -5,21 -31,42 -88,-25 -47,-96 -189,9 -73,-32 45,-6 -142,-67 -158,-52 -99,-23 -174,-10 -66,12 -86,-46 -174,-1 -57,29 -97,41 -105,111 158,90 181,20 253,38 87,21 183,-8 270,65 -88,158 -111,29 -256,147 -51,42 -101,0 -161,27 -35,16 -32,33 -65,41 -71,18 -72,-36 -140,25 -17,15 -13,17 -37,34 -30,22 -57,33 -102,9 -138,-75 -42,-100 -119,-174 -37,-24 -54,-16 -92,-30 -61,-23 -41,-28 -65,-66 -79,-127 -210,55 -251,-90 -18,-62 3,-63 -42,-86 -64,41 -16,73 -127,91 -107,18 -55,39 -118,107 -34,38 -81,66 -89,137 -8,78 9,149 -43,204 -70,-35 54,-103 -159,-106 -62,-1 -50,-33 -267,-46 -22,48 -35,66 -71,97 -40,34 -61,41 -66,102l-86 9c-41,208 70,105 -73,254 -120,126 74,151 84,76 -18,-74 23,58 -17,-27 -7,-14 -12,1 -8,-34 51,-25 48,-17 72,24 7,12 14,30 23,37 36,25 31,11 56,-1 -16,-48 -14,-16 -35,-52 -6,-10 -66,-176 -43,-205 30,-17 39,-11 64,-25 28,-16 24,-25 51,-45 25,-71 -11,-29 67,-162 51,6 200,21 199,66l28 143c-34,-29 -23,-45 -47,-80 -65,-11 -81,-2 -130,23 -24,-10 -37,-25 -41,-26 -94,-28 -16,-21 -49,15 100,79 31,-10 52,94 40,-6 34,-14 68,-27 70,57 45,22 89,49 55,31 7,46 92,38 14,-22 31,-53 39,-77 -23,-33 -41,-81 -39,-133 19,-11 29,-21 51,-26 60,77 0,118 171,114 30,-118 37,-95 42,-116 6,-30 -23,-64 -7,-138 19,-80 30,-54 75,-91 28,-24 33,-69 60,-103 51,-28 179,64 195,80 55,54 45,126 128,141 16,-100 -41,-115 -51,-169 70,-21 142,50 199,77 119,58 80,118 137,169 79,70 140,90 209,48 42,-26 212,-21 278,-13 7,90 13,36 -23,69 -31,28 -29,36 -30,86 18,10 69,28 94,34 30,-78 35,-64 29,-160 61,-10 47,-29 104,-35 57,23 36,36 75,59 58,33 50,-16 104,-1 27,8 44,37 95,35 57,-1 28,-30 100,-15l-7 62c17,11 52,48 72,57 22,10 104,30 123,31 29,-32 38,-48 58,-82 82,11 104,31 164,59 40,-13 28,-14 68,-25 13,18 27,27 42,48 26,38 7,27 25,61 79,25 46,-17 111,-56 75,6 91,40 148,63 56,-24 18,-27 65,-28 36,0 41,18 45,-34 5,-83 -153,-127 -217,-134l2 -68c-21,-11 -77,-21 -35,-59 47,-43 122,63 160,-80 25,-93 29,-17 47,-90l-104 8c11,51 17,30 14,79 -48,37 -43,17 -108,9 -90,71 -82,115 -221,59 -107,-42 -37,-137 -35,-149 12,-58 -20,-37 11,-107 39,-2 25,0 54,15 24,13 55,39 68,-13l5 -232c-61,-7 -37,18 -112,5 -190,-34 -302,24 -330,-82 207,-103 66,20 255,-61 26,-11 61,-13 86,-27 3,-21 -13,-108 -19,-135 -94,-13 -144,17 -173,17 -78,-2 -41,-11 -49,-33 54,-70 10,28 173,-59 30,-199 33,-129 -220,-132 7,-55 13,-36 12,-89 -1,-52 2,-29 19,-81 21,-4 73,-11 94,-18 69,-23 68,-21 85,-43 -12,-45 -7,-26 -46,-51 -51,-34 -66,-84 -98,-95 -68,-23 -24,18 -88,2 -20,-57 14,-46 8,-122 -3,-55 -18,6 -1,-54 11,-35 25,-1 11,-55 -32,-51 -151,50 -150,95 0,24 57,73 21,120 -42,37 -95,18 -141,47 4,54 25,47 69,77l-15 80c85,80 73,54 73,103 -36,-3 -15,5 -51,-13 -11,-5 -75,-51 -144,-45 -7,0 -63,-2 -38,66 16,47 92,62 118,110 -27,26 0,3 -34,25 -20,13 -27,17 -44,26 -26,14 -59,30 -84,42 -71,33 -121,72 -118,154 66,72 85,43 155,8 31,-16 16,-5 42,-15 56,-23 46,-56 130,-35z"/>
   <path class="fil0" d="M1291 9901c58,-33 349,-153 414,-144 38,50 70,90 75,153 -106,39 -376,165 -443,145 -16,-64 -48,-99 -46,-154zm592 54c31,-35 32,-27 78,-43 113,-37 507,-219 570,-204 6,76 12,99 -14,161l-604 213 -30 -127zm962 -1024c-23,80 -11,65 -93,59 -52,-3 -82,10 -132,3 -5,-46 3,-157 -15,-185l-27 4c14,25 14,46 -6,70 12,32 22,20 17,83 -3,39 -7,79 -11,118 39,-46 32,-36 63,-41 -7,33 -57,101 -83,122 -13,13 -25,177 -34,221 -17,77 8,143 -9,233l-667 251 -19 -88c333,-111 179,-174 296,-215 66,-23 123,-50 182,-68 126,-38 142,-38 144,-103 -77,-21 -217,76 -306,102 -61,18 -201,-54 -340,48 -165,121 -43,112 -247,184 -108,39 -251,115 -309,91l-1 -60c123,-6 221,-51 278,-147 52,-89 8,-60 116,-108l445 -179c60,-25 93,-40 146,-58 30,-9 53,-16 77,-25 49,-17 44,-10 52,-65 -145,-7 -95,16 -218,61l-387 158c-337,155 -314,60 -439,83 -129,24 -181,160 -240,181 -53,19 -263,86 -284,116 119,75 263,-54 337,-62 22,37 59,116 54,164 -47,18 -99,38 -151,52 -31,9 -46,16 -74,29 -42,19 -43,17 -54,51 65,48 226,-67 300,-75 26,34 66,112 68,166l-150 66c-24,9 -52,19 -83,30 -63,23 -50,14 -67,43 57,60 88,28 174,-6 32,-13 130,-54 166,-52 98,170 83,-34 86,-47l194 -77c59,-22 128,-67 197,-70 25,9 73,97 58,128l-617 257c-76,35 -159,24 -165,119 94,6 655,-261 810,-301 49,52 7,72 78,78 28,-40 17,-81 12,-119 74,-51 433,-161 529,-222l33 -18c29,59 2,73 34,97 28,-37 12,-89 29,-143 30,-92 6,-33 5,-119 0,-115 -17,-160 -1,-295 41,-364 -13,-439 225,-386 8,112 -10,223 1,332 5,54 -26,569 -16,760 5,89 -31,181 24,229 7,-4 36,15 40,-85 2,-36 -5,-64 -5,-95l21 -902c-14,-163 29,-416 4,-484 -32,0 -6,9 -28,-6l-17 117z"/>
   <path class="fil0" d="M8960 6840c27,-54 55,-63 112,-86 47,-20 96,-43 144,-56 25,25 88,127 92,155 -10,11 -5,7 -19,17 -55,37 -305,126 -350,127 -22,-32 -26,-42 -44,-78 -23,-46 -26,-32 -25,-91l90 12zm-100 -253c35,26 74,64 67,115 -13,79 -133,133 -152,-87l85 -28zm-147 -80c25,-15 -3,-16 40,-16 47,0 33,34 27,57 -6,1 -42,42 -67,-41zm-288 -43c47,23 67,15 38,39 63,-10 65,-38 143,-46 1,7 8,37 10,42 1,3 2,6 3,8 7,14 27,17 38,89 -60,39 -302,122 -391,153 -42,15 -100,28 -123,65 92,65 422,-143 545,-155 17,50 51,95 68,134 -32,41 -132,77 -189,95l-64 28c-141,68 -209,47 -234,126 100,11 188,-23 273,-68 90,-47 154,-88 246,-105 41,33 43,50 47,107 -23,10 -56,18 -86,26l-81 33c-123,73 -65,102 -123,137l-54 26c-42,19 -36,4 -66,38 22,41 70,36 112,17 76,-35 50,-17 123,-6 81,13 204,-25 249,-81 19,-23 16,-38 32,-63 23,-36 3,-16 49,-35 106,-44 234,-116 347,-135 9,11 16,18 27,36 6,9 15,27 21,37 33,64 28,79 -43,94 -82,16 -207,73 -289,109l-442 183c-49,21 -119,75 -31,81 44,4 108,-33 144,-50 18,-8 39,-13 58,-21 84,-34 141,-62 215,-91 86,-34 382,-169 439,-171 38,45 47,83 97,97 27,-47 0,-84 -25,-127 66,-48 275,-118 339,-131l-7 -60 -57 -8c-55,18 -211,116 -314,122 -24,-37 -52,-89 -56,-135 34,-25 146,-62 183,-75 110,-39 155,-43 147,-118 -98,-17 -277,138 -389,117l-19 -67c207,-61 170,-174 253,-204 45,-16 54,-17 56,-67 -70,-29 -52,2 -96,10 -37,6 -50,-16 -100,-21 -192,-20 -178,142 -280,176 -49,17 -131,52 -164,47l-44 -144c103,-73 333,-145 465,-193 25,-9 58,-23 80,-34 38,-18 42,-13 45,-65 -81,-13 -253,76 -340,112l-273 104c-52,21 -164,-27 -196,-73 17,-21 308,-136 360,-159 32,-15 54,-20 91,-33 36,-13 46,-27 84,-41 76,-27 148,-18 152,-110 -97,0 -294,117 -380,146 -39,13 -62,17 -102,35l-266 110c-40,-30 -54,-87 -115,-75 -52,33 29,93 -27,137 -31,24 -85,24 -113,51z"/>
   <path class="fil0" d="M5438 9570c14,-35 -28,-19 45,-30 46,-7 35,-9 61,15 -24,29 -76,31 -106,15zm157 -4c4,-40 1,-72 44,-80 24,-5 -20,-2 19,-1 2,0 7,1 9,1 2,1 6,2 9,3 35,63 -31,82 -81,77zm149 -18c0,-50 -7,-47 21,-82 89,0 19,20 89,60 42,-38 10,-120 173,-94l9 85c-1,24 -24,23 -69,26 -94,8 -116,22 -223,5zm564 -103c27,-16 139,-61 129,59 -17,12 -17,16 -48,23 -117,26 -88,-43 -81,-82zm194 -18c43,-22 114,-27 176,-11 14,38 12,41 2,84 -24,7 -96,18 -130,15 -62,-7 -59,-29 -48,-88zm-802 -21c-36,11 -106,30 -100,-34 4,-55 47,-53 101,-43l-1 77zm119 -79c17,66 8,78 -65,74 2,-47 -2,-45 16,-81 11,-2 7,-4 30,-2l19 9zm1412 140c3,-79 119,-74 151,-57 16,113 -144,61 -151,57zm214 -10c9,-53 5,-68 66,-66 46,2 41,21 37,57 -43,21 -54,14 -103,9zm-1441 -101c-11,-17 -2,-29 -3,-25l-96 -14c32,-41 73,-44 135,-28 10,43 9,54 -19,82l-17 -15zm313 -63c46,-17 75,-13 129,-5l-8 69c-38,16 -75,15 -132,14l11 -78zm-60 206l-4 45c-30,0 -119,2 -141,-7 -34,-14 -40,-65 -16,-92 49,-50 60,-6 110,-20l-84 -10c-35,-14 -11,-4 -32,-24l4 -35c3,-2 8,-4 11,-5l58 11c12,-11 28,-20 50,-31 -45,-32 -33,14 -45,-23 -2,-5 -8,-3 -11,-6 13,-10 -8,-52 104,-14l-32 68c14,11 24,19 35,28l-7 115zm246 -150c7,-68 29,-73 93,-75 83,-3 88,-12 104,52l-42 20c-54,16 -102,13 -155,3zm246 -27c31,-16 180,-7 185,-7 14,35 18,127 9,175 -75,-1 -21,-8 -81,-32 -10,14 -16,25 -26,40l-89 -7 -3 -82c61,5 72,54 127,34 52,-21 26,-91 26,-103 -145,15 -149,59 -148,-18zm801 -81l-7 86 -99 1 6 -85 100 -2zm-523 170c4,-27 -2,-31 -1,-68 37,-18 22,-1 50,-31 -29,-47 -26,6 -40,-49 33,-14 131,-34 143,23 -22,16 -13,9 -35,14l-49 14 48 21c14,5 18,3 35,10 -24,102 -2,176 -158,134 -3,-44 3,-37 7,-68zm587 -131c58,-23 114,-49 122,36l-53 14c53,42 65,24 41,125l-89 -5c-24,-53 -35,-108 -21,-170zm-237 40c-18,26 -76,33 -115,22 -43,-14 -26,-42 -37,-88 45,-15 219,-34 152,66zm-2044 -56c22,78 15,83 19,172 1,22 1,35 1,56 1,106 77,146 182,131l508 -30c66,-4 129,6 188,1 51,-4 112,-14 160,-17l1032 -54c64,-1 130,2 193,0 38,-2 122,4 168,1 16,-39 11,-256 10,-317 -83,-13 -95,12 -158,-6 -83,-24 -384,-12 -477,-8 -87,5 -208,28 -292,34 -108,7 -209,-4 -318,3l-920 43c-38,1 -52,-7 -88,-2 -12,1 -42,12 -60,14 -70,6 -23,-22 -148,-21z"/>
   <path class="fil0" d="M8007 6315c33,-68 10,20 58,-88 49,5 61,17 106,27 56,13 72,8 83,59l-211 17c-46,-6 -22,-5 -36,-15zm51 -574c-34,43 -1,21 -59,31 9,-74 -7,-34 26,-49 42,-18 32,18 33,18zm405 762c29,-24 9,-16 -38,-39l-206 67c1,-60 20,-49 -11,-89 -14,-19 -34,-12 -32,-56 6,-1 307,18 126,-141 -34,-29 -50,-41 -94,-60 37,-9 75,-31 100,-56 -15,-47 -90,-87 -134,-115 -34,-23 -27,-7 -42,-42 49,-63 70,-31 135,-61 7,-69 -98,-137 -164,-177 -13,-74 4,-100 5,-130 2,-79 -61,-48 -87,2l-53 106c-31,45 -123,59 -138,105 -27,82 100,58 113,58 -26,78 -40,14 -116,53 -46,24 -99,45 -93,109 54,23 331,39 219,-87l31 -13c13,11 3,0 16,19 10,15 5,11 16,26 46,-8 32,-16 72,-22l-18 76 90 46c33,24 10,7 20,24 -97,22 -105,-31 -180,-11 -19,66 14,68 -28,119l-50 -11c41,-73 64,-109 17,-151 -27,9 -64,56 -81,85 -35,59 -36,23 -83,66 -20,17 -45,60 -72,81 -43,35 -62,5 -56,86 60,25 160,-18 217,-37 -20,80 6,103 -41,161 -73,91 -31,29 -123,56 -1,51 92,123 192,-28 23,-35 18,-47 34,-81 27,44 29,72 97,72 15,-43 15,-44 -18,-74 -53,-46 -62,-8 -41,-62 61,25 111,80 126,90 19,13 37,15 58,27l4 69c-50,30 -85,-5 -68,67l18 10c13,2 13,4 27,1 7,-1 25,-12 43,-18l15 11c25,13 15,16 60,14l4 -59 212 -86z"/>
   <path class="fil0" d="M3692 10514c21,23 21,40 25,47 19,29 -11,13 48,28l-4 -63c-18,-50 -30,-29 -35,-110 -4,-70 48,-270 -27,-397 92,-79 94,-278 147,-323 35,55 42,152 65,211 27,70 41,130 76,197 53,102 91,193 90,315 -1,71 -30,96 51,97 17,-37 15,-41 19,-91 -34,-47 -10,-19 -18,-106 -15,-157 -134,-321 -151,-383l-89 -327c-84,-114 -128,142 -165,245 -31,88 -47,39 -53,169 -65,8 -45,31 -100,69 1,-54 -9,-79 -9,-143 1,-55 6,-107 6,-156l11 -315c14,-203 64,-435 33,-601 -6,-30 -11,-40 -13,-61 -15,-149 -12,-56 -30,-130 -28,-112 -21,-217 34,-319 49,-91 115,-296 33,-388 -35,-38 -53,-64 -91,-33 15,58 124,71 9,372 -2,5 -13,32 -14,35 -73,154 -58,144 -26,349 8,54 27,61 30,124 2,50 7,82 13,130 25,179 -42,442 -50,633 -5,106 -13,203 -13,307 -1,251 -19,226 72,232l-56 158c-19,38 -66,121 -74,147 140,30 113,-142 213,-316 23,26 11,-20 28,52 20,83 -57,240 15,345z"/>
   <path class="fil0" d="M2039 7044c39,-9 84,-9 112,-21 29,-14 40,-28 81,-45 131,-53 113,-80 183,-46 10,40 -10,73 7,144 -24,46 -23,7 -32,70 165,11 238,-21 241,114 -43,22 -124,40 -91,108 83,19 17,-30 111,-26 -5,133 -28,77 57,160l-28 183c91,20 82,-41 87,-119 7,-103 4,-81 -54,-146 25,-118 14,-12 17,-128 1,-55 14,-43 -43,-89l19 -78c-36,-27 -35,-10 -76,-37 -42,-27 -61,-24 -68,-40 -48,-105 -59,-14 -76,-141 0,0 -5,-29 -5,-29 -7,-23 -4,-12 -14,-29 -129,-20 -119,37 -253,64 -119,24 -43,65 -183,62 -96,-2 -61,16 -75,108 -18,112 -120,94 -185,161 6,53 26,50 16,106 -10,57 -29,41 -10,105 35,118 -38,70 -44,186 -3,47 14,55 8,119 -5,52 -14,70 -2,118 18,66 105,99 175,78 -14,-44 13,-9 -27,-40 -18,-14 -71,-22 -74,-90 -2,-39 13,-78 11,-117 -2,-35 -16,-36 -10,-84 10,-80 78,-54 36,-175 -14,-39 15,-124 19,-182l71 -45c-30,154 -2,69 2,134 0,3 -16,131 -19,159 -32,34 -39,26 -63,54 8,40 25,58 66,72 43,-27 49,-48 70,-94 45,-96 49,-36 69,-102l-74 -16c51,-149 -12,-30 39,-213l-31 -48c17,-39 22,-26 31,-58 4,-16 5,-44 9,-67z"/>
   <path class="fil0" d="M6998 6061c73,-64 220,14 262,46 -36,27 -52,26 -106,29 0,45 6,27 14,70 -18,18 -26,21 -50,40 -29,23 -31,22 -45,58l44 131c72,16 57,-15 113,3 154,47 74,70 143,129 25,21 56,30 83,51 40,31 33,43 99,46 48,2 66,-10 77,-51 -89,-23 -79,29 -139,-14 -26,-19 -18,-19 -48,-37 -22,-13 -22,-9 -45,-29 0,-82 59,-124 -65,-119 -71,3 -30,0 -80,-19 -39,-15 -50,-1 -87,-3 -69,-146 -9,-37 76,-213 74,-20 63,-7 103,-52 -9,-89 -47,-59 -123,-96 -21,-10 -151,-54 -163,-54 -43,-3 -118,30 -122,79 -2,35 24,39 12,81 -8,30 -27,28 -53,57 7,88 27,33 50,136 7,32 20,33 15,80 -54,14 -48,-15 -95,3 -37,14 -32,39 -79,51 -76,18 -132,-46 -189,-73 -70,21 -84,65 -158,60 -104,-6 -80,1 -125,80 -34,4 -31,-2 -48,-1l-36 7c22,56 58,47 117,48 27,-55 5,-39 52,-85l93 14c33,-27 47,-49 77,-73 87,16 143,109 243,51 67,-38 36,-37 112,-25 60,10 68,-19 103,-49 -3,-59 -20,-31 -1,-125 -30,-18 -41,-31 -54,-68 28,-47 36,-29 70,-65 -14,-57 -39,-27 -47,-99z"/>
   <path class="fil0" d="M8270 7860c-3,-79 -92,-37 -110,-8 -31,50 8,90 10,140 -27,43 -59,38 -66,101 -6,49 14,70 9,130 -45,46 -68,84 -53,152 14,65 44,80 120,89 -14,24 -23,30 -31,59 30,32 51,43 48,100 -8,4 -26,13 -34,18 -15,9 -18,13 -34,23 -9,61 0,70 -21,131 -18,54 -16,71 10,109l59 81c112,105 97,56 154,39 102,-30 29,43 128,-40 27,-22 99,-46 112,-124 -77,-3 -33,31 -80,70 -24,19 -35,12 -80,47 -4,3 -13,16 -14,12l-138 17c-35,-20 -55,-39 -75,-71 -73,-120 -61,-31 -28,-157 6,-25 11,-62 17,-90l63 -29c16,-54 -4,-84 -19,-120l24 -8c23,-8 8,-1 25,-11 -16,-40 -19,-41 -71,-52l17 -76c-69,22 -81,17 -121,-29 -5,-79 57,-87 56,-169 -1,-32 -16,-71 4,-107 18,-35 44,-19 83,-18 21,-33 -16,-35 122,-42 2,4 3,8 4,10 1,3 2,7 3,10 17,52 33,79 34,135 4,97 -45,61 -29,154 30,-9 4,12 32,-31 58,-91 45,-286 -15,-316 -77,-39 -231,81 -195,-121l80 -8z"/>
   <path class="fil0" d="M4450 6853c-33,48 18,-11 -28,23l-28 -13c-12,90 -82,189 161,204l16 74c87,6 32,-7 81,41 29,28 40,23 68,48 8,65 -13,62 24,112 31,42 26,43 32,99 -59,-16 -31,-33 -80,-23 23,54 76,63 134,111 31,26 5,9 50,25 107,38 16,63 98,73 14,-122 -126,-137 -151,-148 -8,-42 -7,-79 -24,-121 -71,-173 32,-82 -99,-189 -34,-28 -7,7 -26,-43 -12,-32 -2,-17 -25,-46 -29,12 -15,8 -41,49 6,-97 -13,-136 -17,-169 55,-59 43,-40 120,-61 69,-19 60,-24 146,-20 16,32 34,119 156,158 -14,-89 -37,-64 -82,-105 -39,-37 -11,-58 -46,-123 -37,-10 -183,19 -246,54 -26,14 2,5 -42,16 -94,23 -46,55 -65,143 -51,-2 -78,-22 -108,-41 -5,-58 12,-80 22,-128z"/>
   <path class="fil0" d="M6862 9743c62,10 62,42 119,42 76,0 63,-18 126,22 84,53 73,17 111,-15 34,-28 13,10 49,-33 28,-35 -12,-17 33,-38 52,34 9,8 29,71 77,33 63,4 130,4 66,0 62,27 116,41l50 -50c75,14 224,55 274,-2 -22,-46 -31,-35 -69,-25 -74,18 -13,5 -87,-10 -155,-31 -114,-18 -188,-6l-26 -50c-109,-4 -43,43 -149,47 -40,-44 -21,-21 -37,-80 -11,-44 -12,-43 -57,-51l-26 52c-28,60 -41,28 -116,85 -41,-10 -40,-25 -90,-22 -34,2 -40,15 -83,3 -54,-14 -73,-67 -149,-37 -37,44 -35,106 5,140 21,-37 16,-54 35,-88z"/>
   <path class="fil0" d="M4394 6863l28 13c46,-34 -5,25 28,-23 11,-65 17,-135 -18,-170 -76,-75 -184,-11 -231,-24 -65,-17 -24,-22 -105,-5 -115,24 -51,37 -95,52 -78,2 -119,-20 -176,11 -55,30 -66,38 -89,95 85,73 72,14 141,-40 48,16 86,59 139,67 81,-101 43,-29 98,-85 203,33 28,-40 246,-24 4,54 7,86 34,133z"/>
   <path class="fil0" d="M6134 6240l-29 -71 49 -17 -4 -65c59,-7 69,24 111,59l-28 66 -99 28zm-61 -117c-49,6 -34,-3 -54,33 56,76 79,30 69,172 -198,2 -94,9 -196,22 -183,22 -101,-9 -156,-61 -84,42 -33,131 165,120 70,-5 26,-48 138,-25 104,22 64,-51 130,-53 37,66 -21,11 -10,85 7,43 16,69 62,66 0,-32 -9,-39 -21,-64 28,-21 28,-14 43,-57l-48 -74c101,-41 86,-9 96,-67 10,-52 52,-92 8,-128 -35,-29 -236,-133 -226,31z"/>
   <path class="fil0" d="M4128 10516c38,6 18,16 57,24 27,6 50,-3 84,0 -4,73 -32,88 -24,152 19,13 23,16 42,26 67,-29 48,-47 91,-76l75 67c84,32 149,-166 149,-166l62 1c13,78 -7,43 29,112 51,6 98,17 124,-13l-89 -11c9,-78 51,-92 27,-145 -23,-29 -93,-7 -176,-4 -91,3 -23,50 -56,126 -5,13 -23,33 -37,39 -33,13 -11,8 -50,1 -2,-72 47,-87 -39,-114 -35,18 -32,23 -63,47 0,0 -7,-107 -93,-143 -17,34 37,84 -103,7l9 -21c-4,50 -2,54 -19,91z"/>
   <path class="fil0" d="M4845 9093c-1,-83 38,-193 -82,-160 46,106 39,11 27,179 37,43 125,75 172,96 -10,58 -50,74 -52,114 -2,42 36,65 56,99 -12,92 -53,81 -101,165 -63,110 -11,97 -34,221 -36,20 -49,8 -50,59 47,30 66,8 94,-15 28,-118 -26,-157 37,-248 55,-78 42,-42 69,-73 89,-105 -23,-158 -24,-191 20,-56 74,-61 45,-140 -13,-24 -145,-78 -157,-106z"/>
   <path class="fil0" d="M5452 10073c44,17 73,40 109,64 20,13 191,179 333,29 90,-96 111,-61 265,14 80,39 76,93 148,67 -9,-39 -10,-21 -42,-49 -16,-14 -20,-26 -41,-40 -32,-21 -79,-28 -122,-51 -55,-31 -57,-52 -141,-43 -65,7 -64,26 -100,61 -124,123 -175,42 -322,-65 -63,-46 -158,-89 -167,42 46,6 46,-10 80,-29z"/>
   <path class="fil0" d="M7427 10155c32,26 52,55 113,56 67,0 53,-33 128,-41 29,117 52,149 194,93l15 -8c-43,-36 -74,-19 -137,-35 -38,-75 10,-129 -82,-148 -53,22 -64,98 -149,87 -36,-36 -30,-71 -51,-114l-56 -9c-19,15 -35,30 -59,43l-6 107c12,7 0,9 26,9 20,0 8,1 23,-7l41 -33z"/>
   <path class="fil0" d="M4958 10058c-17,-37 -77,-48 -112,-42 -44,7 -28,7 -38,29 38,56 69,7 84,48 46,135 124,45 215,111 49,36 45,18 31,71 -55,17 -213,-66 -215,73 79,10 56,-43 147,-24 87,18 43,12 150,-30 -1,-31 -7,-44 -11,-78 -170,-84 -52,-56 -233,-94 -2,-3 -3,-7 -4,-9l-7 -20c0,-3 -1,-6 -2,-9 -5,-22 5,-2 -5,-26z"/>
   <path class="fil0" d="M4393 7756c46,93 75,-63 265,-59 56,73 1,42 98,76 56,20 40,54 113,43 -6,66 -36,89 15,129 1,-2 3,-6 3,-7l20 -61c32,-84 -3,-23 51,-131 2,-2 3,-5 5,-8 1,-3 3,-6 4,-9 40,-89 6,-72 1,-79 -41,27 -1,-4 -28,34 -21,30 0,4 -26,34 -28,30 -12,26 -62,45 -3,-1 -127,-47 -128,-47 -62,-38 -4,-127 -132,-60 -44,23 -38,10 -81,22l-118 78z"/>
   <path class="fil0" d="M5529 6239l33 -5 -6 -74c90,-89 51,-56 157,-62 72,-4 34,0 101,21 59,19 59,3 64,69 -3,0 -8,-2 -10,2 -1,3 -7,1 -9,2l-48 8c-20,7 -14,6 -26,15 12,12 6,12 31,22 52,20 96,14 131,-15 -10,-8 -25,-25 -29,-48l-2 -53c-9,-72 -150,-62 -207,-71 -32,-4 -36,-14 -68,-21 -15,11 -50,39 -59,43 -26,11 -125,-10 -85,96 8,22 22,43 32,71z"/>
   <path class="fil0" d="M8809 7686c-9,-13 -88,-48 -141,-27 31,19 -13,23 83,42 -1,84 -37,90 38,130 58,30 45,39 28,91 -49,149 40,159 50,249 5,47 -78,121 -85,171 -3,24 -2,8 5,22 42,-21 21,-18 55,-63 58,-73 52,-149 11,-243 -62,-143 119,-127 -71,-272 15,-43 46,-58 27,-100z"/>
   <path class="fil0" d="M8577 7568c-44,-97 -51,33 -91,-114l-65 -16 -18 -81c-3,3 -24,8 -24,48 0,12 12,46 14,53 -69,-6 -64,-64 -155,-45 -32,46 -35,94 -6,145 43,-21 23,-17 53,-60 79,20 60,19 152,15 0,1 58,51 105,60 38,6 14,4 35,-5z"/>
   <path class="fil0" d="M8069 9118c-44,-36 -3,-24 -49,-38 -39,101 68,64 80,135 9,57 -103,190 -23,256 44,37 50,14 86,8 107,-17 49,79 147,52 -7,-74 8,-11 -45,-57 -55,-48 -8,-63 -112,-40 -112,26 -46,-70 -36,-112 32,-136 47,-125 -48,-204z"/>
   <path class="fil0" d="M8573 9762c-25,-60 -14,-12 -136,-44 -48,-12 -103,-31 -154,-40 -87,-15 -92,2 -173,-29 -115,-45 -164,86 -85,72 56,-10 -3,-30 66,-27 48,3 60,34 157,30 100,-5 247,77 325,38z"/>
   <path class="fil0" d="M2683 6773c63,38 53,-7 99,-26l6 78c64,25 70,26 82,94 10,57 -1,102 59,89l7 -68c-14,-64 -19,-104 -81,-128 20,-151 -83,-147 -147,-94 -61,50 -25,54 -25,55z"/>
   <path class="fil0" d="M4502 7239c48,-17 28,-1 45,-24l-24 -26c-3,-2 -6,-4 -8,-5 -19,-10 -30,-12 -47,-12 -33,1 -52,18 -76,26 -62,20 -117,-24 -155,54l55 37 -1 -42c70,0 67,44 111,60 73,28 9,-13 57,7 20,8 3,16 55,29 2,-43 -12,-63 -29,-98l17 -6z"/>
   <path class="fil0" d="M2312 6811c32,10 33,15 64,1 51,-21 -17,-20 49,-22 51,-2 57,33 89,58 53,7 49,-7 99,15 41,19 9,23 70,18 -8,-54 9,-14 -19,-49 -21,-26 -240,-114 -267,-121 -16,11 -47,24 -62,43l-23 57z"/>
   <path class="fil0" d="M4560 8069c136,-148 78,116 194,134l-86 -226c-92,-31 -83,-1 -131,25 -54,-97 -191,12 -120,37 33,12 20,-9 71,-19 28,20 31,33 72,49z"/>
   <path class="fil0" d="M4953 8036c-30,-45 -3,-50 -61,-83 -20,184 126,98 174,215 28,67 -21,64 32,146 38,60 13,98 87,100 -1,-48 -30,-58 -51,-110 -27,-67 -6,-61 -14,-129 -6,-51 -87,-106 -114,-119 -24,-12 -26,-6 -53,-20z"/>
   <path class="fil0" d="M5346 9759c43,0 260,16 299,7 -12,-43 -61,-79 -126,-61 -68,18 -95,-21 -181,-20l-98 147 27 2c3,-1 6,-2 8,-3 25,-9 58,-53 71,-72z"/>
   <path class="fil0" d="M6791 10143c168,-63 144,27 184,50 51,7 82,24 111,-7 -18,-35 9,-15 -48,-29 -125,-28 -57,-55 -149,-68 -53,-7 -47,17 -107,-19 -50,-32 -48,-30 -115,-28 -32,41 -64,57 -6,103 33,-13 16,-15 45,-43 61,11 41,16 85,41z"/>
   <path class="fil0" d="M4796 8538c5,-7 21,-3 14,-70 -2,-17 -10,-43 -15,-63 -33,-144 73,-157 -126,-188 -25,-3 -47,1 -64,13 -28,20 -13,2 -19,27 -12,51 -2,9 5,27 10,5 -11,5 27,9 43,4 24,-15 67,-10 62,7 68,63 83,170 17,124 0,65 28,85z"/>
   <path class="fil0" d="M4591 8675c62,24 52,-11 102,-31 35,15 62,39 62,88 1,66 -42,93 26,113 124,-161 -152,-379 -190,-170z"/>
   <path class="fil0" d="M4842 9307c-31,-23 -65,-43 -104,-27 83,168 -45,224 -19,340l50 6c-21,-104 -1,-65 30,-157 18,-53 47,-102 43,-162z"/>
   <path class="fil0" d="M5698 9793c24,37 4,25 61,23l174 4c38,8 12,19 72,22l-4 -73 -258 -12c-51,7 -34,2 -45,36z"/>
   <path class="fil0" d="M8406 8706c0,-12 74,-138 -33,-199 -30,64 9,18 28,95l-39 48c-1,-2 -4,5 -6,7 9,36 10,86 4,131l-65 12c-2,-2 -7,3 -10,5 10,24 -7,29 49,39 93,17 71,-111 72,-138z"/>
   <path class="fil0" d="M8621 8210c-28,-42 -62,-64 -113,-35 24,31 -25,-5 22,27 5,3 12,1 31,13 -25,99 -26,34 -11,132 13,87 -54,73 -21,135 44,-16 59,-77 52,-129 -8,-54 21,-92 40,-143z"/>
   <path class="fil0" d="M5235 7070c-50,-37 -71,-127 -167,-92 23,30 -31,-6 26,29 18,11 77,46 88,75 2,77 -21,109 52,123l1 -135z"/>
   <path class="fil0" d="M4425 7526c64,-36 -49,35 20,-17 46,-35 34,-9 77,-25 33,-13 47,-45 62,-68 62,8 45,19 96,24 -67,-126 -99,-8 -248,2 -27,47 -63,43 -7,84z"/>
   <path class="fil0" d="M8288 7767c46,24 45,2 80,-12 107,92 -14,158 90,181 -6,-89 -23,-170 -71,-243 -49,6 -100,16 -99,74z"/>
   <path class="fil0" d="M4969 10515c93,30 37,-63 201,-48 -8,-56 -36,-58 -100,-65 -27,16 -90,66 -101,113z"/>
   <path class="fil0" d="M4154 7143c45,23 134,12 179,0 -12,-42 10,-2 -19,-48 -8,-13 -15,-18 -26,-28 -58,4 -116,29 -134,76z"/>
   <path class="fil0" d="M2766 6995c-61,-20 -90,-9 -104,45 17,5 177,43 179,42 17,-58 -25,-71 -75,-87z"/>
   <path class="fil0" d="M4562 6662c32,20 35,6 76,8 -5,62 -25,93 63,84 13,-49 -9,-98 -32,-129 -32,-4 -43,-3 -70,7 -52,18 -24,-6 -37,30z"/>
   <path class="fil0" d="M8629 8604c-84,-57 -44,-56 -91,-84 7,45 13,18 6,72 -64,30 -64,17 -50,85 106,-6 78,-59 135,-73z"/>
   <path class="fil0" d="M4046 6924c56,25 36,3 80,-23 60,12 58,32 109,33 13,-91 -167,-106 -189,-10z"/>
   <path class="fil0" d="M6635 8987c36,3 39,25 44,-63 2,-26 0,-17 7,-51 10,-54 8,-36 -3,-61 -49,7 -20,-14 -44,21 -19,28 1,59 1,99 -1,20 -5,27 -5,55z"/>
   <path class="fil0" d="M8667 7814c-58,-27 -50,-28 -112,-13l97 84c17,-26 15,-11 15,-71z"/>
   <path class="fil0" d="M7259 8031c-6,35 -13,85 2,113 50,-31 21,-39 24,-65 6,-45 20,-9 30,-64 -25,-1 -35,0 -56,16z"/>
   <path class="fil0" d="M6595 8067c28,-26 33,-59 21,-102 -24,1 -61,-16 -29,86l8 16z"/>
   <path class="fil0" d="M8461 8047c20,-24 12,41 19,-39 4,-35 -10,-35 -13,-39 0,1 -59,11 -6,78z"/>
  </g>
 </g>
</svg>
